%FSLAX34Y34*%
G04 Gerber Fmt 3.4, Leading zero omitted, Abs format*
G04 (created by PCBNEW (2013-12-28 BZR 4579)-product) date tor 16 jan 2014 22:13:37 CET*
%MOIN*%
G01*
G70*
G90*
G04 APERTURE LIST*
%ADD10C,0.006000*%
%ADD11C,0.008000*%
%ADD12C,0.012000*%
%ADD13R,0.100000X0.100000*%
%ADD14C,0.100000*%
%ADD15R,0.055000X0.055000*%
%ADD16C,0.055000*%
%ADD17R,0.137800X0.137800*%
%ADD18O,0.090000X0.062000*%
%ADD19R,0.090000X0.062000*%
%ADD20C,0.236220*%
%ADD21C,0.060000*%
%ADD22C,0.066000*%
%ADD23C,0.059100*%
%ADD24R,0.065000X0.065000*%
%ADD25C,0.065000*%
%ADD26R,0.060000X0.060000*%
%ADD27R,0.144000X0.080000*%
%ADD28R,0.040000X0.080000*%
%ADD29C,0.035000*%
%ADD30C,0.010000*%
%ADD31C,0.032000*%
%ADD32C,0.016000*%
G04 APERTURE END LIST*
G54D10*
G54D11*
X52800Y-45500D02*
X52800Y-45300D01*
X52800Y-45300D02*
X53000Y-45500D01*
X53000Y-45500D02*
X53000Y-45300D01*
X53000Y-44700D02*
X53000Y-44800D01*
X52900Y-44900D02*
G75*
G03X53000Y-44800I0J100D01*
G74*
G01*
X53010Y-45700D02*
G75*
G03X53010Y-45700I-110J0D01*
G74*
G01*
X52900Y-45000D02*
X52900Y-45200D01*
X52800Y-44800D02*
G75*
G03X52900Y-44900I100J0D01*
G74*
G01*
G54D12*
X52701Y-45525D02*
G75*
G03X52701Y-45525I-301J0D01*
G74*
G01*
X52650Y-44950D02*
G75*
G03X52650Y-44950I-250J0D01*
G74*
G01*
G54D11*
X52800Y-44800D02*
X52800Y-44700D01*
G54D13*
X50800Y-49850D03*
G54D14*
X52800Y-49850D03*
G54D15*
X53500Y-36000D03*
G54D16*
X54500Y-36000D03*
G54D15*
X56250Y-36000D03*
G54D16*
X57250Y-36000D03*
G54D17*
X52803Y-34480D03*
X52803Y-32118D03*
X50953Y-33299D03*
G54D18*
X59750Y-37250D03*
X59750Y-38250D03*
X59750Y-39250D03*
X59750Y-40250D03*
X59750Y-41250D03*
X59750Y-42250D03*
X59750Y-43250D03*
X59750Y-44250D03*
X59750Y-45250D03*
X59750Y-46250D03*
X59750Y-47250D03*
X59750Y-48250D03*
X59750Y-49250D03*
G54D19*
X59750Y-36250D03*
G54D18*
X62750Y-49250D03*
X62750Y-48250D03*
X62750Y-47250D03*
X62750Y-46250D03*
X62750Y-45250D03*
X62750Y-44250D03*
X62750Y-43250D03*
X62750Y-42250D03*
X62750Y-41250D03*
X62750Y-40250D03*
X62750Y-39250D03*
X62750Y-38250D03*
X62750Y-37250D03*
X62750Y-36250D03*
G54D20*
X57192Y-49244D03*
X65559Y-32511D03*
X48826Y-32511D03*
G54D16*
X58500Y-42250D03*
X58500Y-43250D03*
X64000Y-44250D03*
X64000Y-45250D03*
X64000Y-43250D03*
X64000Y-42250D03*
X57750Y-34750D03*
X60750Y-34750D03*
G54D21*
X63750Y-34750D03*
X61750Y-34750D03*
X63750Y-31750D03*
X61750Y-31750D03*
G54D22*
X55000Y-48800D03*
X55000Y-49800D03*
G54D23*
X56500Y-45711D03*
X56500Y-43789D03*
G54D24*
X48700Y-41100D03*
G54D25*
X48700Y-40100D03*
X48700Y-39100D03*
X48700Y-38100D03*
X48700Y-37100D03*
X48700Y-36100D03*
G54D24*
X65700Y-43100D03*
G54D25*
X65700Y-42100D03*
X65700Y-41100D03*
X65700Y-40100D03*
X65700Y-39100D03*
X65700Y-38100D03*
G54D24*
X48700Y-43100D03*
G54D25*
X48700Y-44100D03*
X48700Y-45100D03*
X48700Y-46100D03*
X48700Y-47100D03*
X48700Y-48100D03*
X48700Y-49100D03*
X48700Y-50100D03*
G54D24*
X65700Y-50100D03*
G54D25*
X65700Y-49100D03*
X65700Y-48100D03*
X65700Y-47100D03*
X65700Y-46100D03*
X65700Y-45100D03*
G54D16*
X60650Y-33750D03*
X59650Y-33750D03*
G54D24*
X55500Y-31750D03*
G54D25*
X56500Y-31750D03*
X57500Y-31750D03*
X58500Y-31750D03*
X59500Y-31750D03*
X60500Y-31750D03*
G54D26*
X64950Y-34300D03*
G54D21*
X65950Y-34300D03*
X64950Y-35300D03*
X65950Y-35300D03*
X64950Y-36300D03*
X65950Y-36300D03*
G54D23*
X54750Y-43250D03*
X54750Y-44250D03*
X54750Y-46250D03*
X54750Y-45250D03*
G54D27*
X51000Y-39550D03*
G54D28*
X51000Y-36950D03*
X50100Y-36950D03*
X51900Y-36950D03*
G54D16*
X55600Y-47950D03*
X54600Y-47950D03*
G54D29*
X51000Y-37950D03*
X55150Y-36500D03*
X59000Y-36200D03*
X51900Y-36100D03*
X54250Y-42050D03*
X52800Y-41300D03*
X62800Y-50100D03*
G54D21*
X50800Y-40450D03*
X58250Y-38050D03*
X60800Y-35900D03*
X63100Y-34300D03*
G54D30*
X59740Y-33730D02*
X59740Y-33660D01*
X60500Y-32900D02*
X60500Y-31750D01*
X59740Y-33660D02*
X60500Y-32900D01*
X62750Y-46250D02*
X65550Y-46250D01*
X65550Y-46250D02*
X65700Y-46100D01*
X65700Y-47100D02*
X65900Y-47100D01*
X66400Y-35300D02*
X65950Y-35300D01*
X66650Y-35550D02*
X66400Y-35300D01*
X66650Y-46350D02*
X66650Y-35550D01*
X65900Y-47100D02*
X66650Y-46350D01*
X62750Y-47250D02*
X65550Y-47250D01*
X65550Y-47250D02*
X65700Y-47100D01*
X54300Y-37350D02*
X53700Y-37950D01*
X53700Y-37950D02*
X51000Y-37950D01*
X54300Y-37350D02*
X55150Y-36500D01*
X61750Y-34750D02*
X61750Y-31750D01*
X64950Y-36550D02*
X64700Y-36550D01*
X62900Y-34750D02*
X61750Y-34750D01*
X64700Y-36550D02*
X62900Y-34750D01*
X60750Y-34750D02*
X61750Y-34750D01*
X59750Y-36250D02*
X59750Y-35750D01*
X59750Y-35750D02*
X60750Y-34750D01*
X59750Y-37250D02*
X59400Y-37250D01*
X58500Y-36350D02*
X58500Y-31750D01*
X59400Y-37250D02*
X58500Y-36350D01*
X54400Y-40200D02*
X54367Y-40200D01*
X51467Y-43100D02*
X51400Y-43100D01*
X54367Y-40200D02*
X51467Y-43100D01*
X59750Y-37250D02*
X59750Y-37350D01*
X51400Y-43100D02*
X48700Y-43100D01*
X56900Y-40200D02*
X54400Y-40200D01*
X59750Y-37350D02*
X56900Y-40200D01*
X65700Y-45100D02*
X65800Y-45100D01*
X65450Y-35800D02*
X64950Y-35300D01*
X66200Y-35800D02*
X65450Y-35800D01*
X66454Y-36054D02*
X66200Y-35800D01*
X66454Y-44445D02*
X66454Y-36054D01*
X65800Y-45100D02*
X66454Y-44445D01*
X62750Y-45250D02*
X63100Y-45250D01*
X65100Y-45100D02*
X65700Y-45100D01*
X64400Y-45800D02*
X65100Y-45100D01*
X63650Y-45800D02*
X64400Y-45800D01*
X63100Y-45250D02*
X63650Y-45800D01*
X59000Y-36200D02*
X59000Y-32250D01*
X59000Y-32250D02*
X59500Y-31750D01*
X59750Y-38250D02*
X59750Y-38350D01*
X50750Y-44100D02*
X48700Y-44100D01*
X54350Y-40500D02*
X50750Y-44100D01*
X57600Y-40500D02*
X54350Y-40500D01*
X59750Y-38350D02*
X57600Y-40500D01*
G54D31*
X54750Y-44250D02*
X56039Y-44250D01*
X56039Y-44250D02*
X56500Y-43789D01*
X59750Y-44250D02*
X56961Y-44250D01*
X56961Y-44250D02*
X56500Y-43789D01*
X54750Y-45250D02*
X56039Y-45250D01*
X56039Y-45250D02*
X56500Y-45711D01*
X59750Y-45250D02*
X56961Y-45250D01*
X56961Y-45250D02*
X56500Y-45711D01*
G54D30*
X51900Y-36950D02*
X51900Y-36100D01*
G54D31*
X50100Y-36150D02*
X50100Y-36950D01*
X52803Y-34480D02*
X51119Y-34480D01*
X50100Y-35500D02*
X50100Y-36150D01*
X50100Y-36150D02*
X50100Y-36200D01*
X51119Y-34480D02*
X50100Y-35500D01*
X56250Y-36000D02*
X56250Y-35750D01*
X54980Y-34480D02*
X52803Y-34480D01*
X56250Y-35750D02*
X54980Y-34480D01*
G54D30*
X59250Y-41750D02*
X59000Y-41500D01*
X54800Y-41500D02*
X54250Y-42050D01*
X59000Y-41500D02*
X54800Y-41500D01*
X64000Y-43250D02*
X62750Y-43250D01*
G54D32*
X48700Y-41100D02*
X52600Y-41100D01*
G54D30*
X61250Y-41750D02*
X62750Y-43250D01*
X59250Y-41750D02*
X61250Y-41750D01*
X52600Y-41100D02*
X52800Y-41300D01*
X54600Y-47950D02*
X54600Y-48500D01*
X54600Y-48500D02*
X55100Y-49000D01*
X59750Y-46250D02*
X59450Y-46250D01*
X49800Y-47000D02*
X48700Y-48100D01*
X58700Y-47000D02*
X49800Y-47000D01*
X59450Y-46250D02*
X58700Y-47000D01*
X59750Y-47250D02*
X50550Y-47250D01*
X50550Y-47250D02*
X48700Y-49100D01*
X59750Y-48250D02*
X59700Y-48250D01*
X51300Y-47500D02*
X48700Y-50100D01*
X58950Y-47500D02*
X51300Y-47500D01*
X59700Y-48250D02*
X58950Y-47500D01*
X62800Y-50100D02*
X65700Y-50100D01*
X62750Y-49250D02*
X65550Y-49250D01*
X65550Y-49250D02*
X65700Y-49100D01*
X62750Y-48250D02*
X65550Y-48250D01*
X65550Y-48250D02*
X65700Y-48100D01*
X62750Y-41250D02*
X63850Y-41250D01*
X63850Y-41250D02*
X65700Y-43100D01*
X62750Y-40250D02*
X63850Y-40250D01*
X63850Y-40250D02*
X65700Y-42100D01*
X62750Y-39250D02*
X63850Y-39250D01*
X63850Y-39250D02*
X65700Y-41100D01*
X62750Y-38250D02*
X63850Y-38250D01*
X63850Y-38250D02*
X65700Y-40100D01*
X62750Y-37250D02*
X63850Y-37250D01*
X63850Y-37250D02*
X65700Y-39100D01*
X62750Y-36250D02*
X63850Y-36250D01*
X63850Y-36250D02*
X65700Y-38100D01*
X59750Y-39250D02*
X59700Y-39250D01*
X50050Y-45100D02*
X48700Y-45100D01*
X54400Y-40750D02*
X50050Y-45100D01*
X58200Y-40750D02*
X54400Y-40750D01*
X59700Y-39250D02*
X58200Y-40750D01*
X59750Y-40250D02*
X59000Y-41000D01*
X49350Y-46100D02*
X48700Y-46100D01*
X54450Y-41000D02*
X49350Y-46100D01*
X59000Y-41000D02*
X54450Y-41000D01*
X54600Y-41250D02*
X54500Y-41250D01*
X48700Y-47050D02*
X48700Y-47100D01*
X54500Y-41250D02*
X48700Y-47050D01*
X59750Y-41250D02*
X54600Y-41250D01*
G54D32*
X64300Y-34450D02*
X64300Y-34550D01*
X65450Y-34800D02*
X65950Y-34300D01*
X64550Y-34800D02*
X65450Y-34800D01*
X64300Y-34550D02*
X64550Y-34800D01*
G54D31*
X58250Y-38050D02*
X58250Y-38000D01*
G54D10*
G36*
X54741Y-50320D02*
X53390Y-50320D01*
X53435Y-50275D01*
X53549Y-49999D01*
X53550Y-49701D01*
X53436Y-49425D01*
X53225Y-49214D01*
X52949Y-49100D01*
X52651Y-49099D01*
X52375Y-49213D01*
X52164Y-49424D01*
X52050Y-49700D01*
X52049Y-49998D01*
X52163Y-50274D01*
X52209Y-50320D01*
X51550Y-50320D01*
X51550Y-50300D01*
X51550Y-49962D01*
X51550Y-49737D01*
X51550Y-49399D01*
X51550Y-49300D01*
X51511Y-49208D01*
X51441Y-49138D01*
X51349Y-49100D01*
X50912Y-49100D01*
X50850Y-49162D01*
X50850Y-49800D01*
X51487Y-49800D01*
X51550Y-49737D01*
X51550Y-49962D01*
X51487Y-49900D01*
X50850Y-49900D01*
X50850Y-49907D01*
X50750Y-49907D01*
X50750Y-49900D01*
X50750Y-49800D01*
X50750Y-49162D01*
X50687Y-49100D01*
X50250Y-49100D01*
X50158Y-49138D01*
X50088Y-49208D01*
X50050Y-49300D01*
X50050Y-49399D01*
X50050Y-49737D01*
X50112Y-49800D01*
X50750Y-49800D01*
X50750Y-49900D01*
X50112Y-49900D01*
X50050Y-49962D01*
X50050Y-50300D01*
X50050Y-50320D01*
X49231Y-50320D01*
X49274Y-50214D01*
X49275Y-49986D01*
X49264Y-49959D01*
X51424Y-47800D01*
X54093Y-47800D01*
X54075Y-47845D01*
X54074Y-48053D01*
X54154Y-48247D01*
X54300Y-48392D01*
X54300Y-48500D01*
X54322Y-48614D01*
X54387Y-48712D01*
X54420Y-48744D01*
X54419Y-48914D01*
X54508Y-49128D01*
X54671Y-49291D01*
X54691Y-49299D01*
X54671Y-49308D01*
X54508Y-49471D01*
X54420Y-49684D01*
X54419Y-49914D01*
X54508Y-50128D01*
X54671Y-50291D01*
X54741Y-50320D01*
X54741Y-50320D01*
G37*
G54D30*
X54741Y-50320D02*
X53390Y-50320D01*
X53435Y-50275D01*
X53549Y-49999D01*
X53550Y-49701D01*
X53436Y-49425D01*
X53225Y-49214D01*
X52949Y-49100D01*
X52651Y-49099D01*
X52375Y-49213D01*
X52164Y-49424D01*
X52050Y-49700D01*
X52049Y-49998D01*
X52163Y-50274D01*
X52209Y-50320D01*
X51550Y-50320D01*
X51550Y-50300D01*
X51550Y-49962D01*
X51550Y-49737D01*
X51550Y-49399D01*
X51550Y-49300D01*
X51511Y-49208D01*
X51441Y-49138D01*
X51349Y-49100D01*
X50912Y-49100D01*
X50850Y-49162D01*
X50850Y-49800D01*
X51487Y-49800D01*
X51550Y-49737D01*
X51550Y-49962D01*
X51487Y-49900D01*
X50850Y-49900D01*
X50850Y-49907D01*
X50750Y-49907D01*
X50750Y-49900D01*
X50750Y-49800D01*
X50750Y-49162D01*
X50687Y-49100D01*
X50250Y-49100D01*
X50158Y-49138D01*
X50088Y-49208D01*
X50050Y-49300D01*
X50050Y-49399D01*
X50050Y-49737D01*
X50112Y-49800D01*
X50750Y-49800D01*
X50750Y-49900D01*
X50112Y-49900D01*
X50050Y-49962D01*
X50050Y-50300D01*
X50050Y-50320D01*
X49231Y-50320D01*
X49274Y-50214D01*
X49275Y-49986D01*
X49264Y-49959D01*
X51424Y-47800D01*
X54093Y-47800D01*
X54075Y-47845D01*
X54074Y-48053D01*
X54154Y-48247D01*
X54300Y-48392D01*
X54300Y-48500D01*
X54322Y-48614D01*
X54387Y-48712D01*
X54420Y-48744D01*
X54419Y-48914D01*
X54508Y-49128D01*
X54671Y-49291D01*
X54691Y-49299D01*
X54671Y-49308D01*
X54508Y-49471D01*
X54420Y-49684D01*
X54419Y-49914D01*
X54508Y-50128D01*
X54671Y-50291D01*
X54741Y-50320D01*
G54D10*
G36*
X59131Y-37543D02*
X58047Y-38628D01*
X58047Y-35117D01*
X57750Y-34820D01*
X57679Y-34891D01*
X57679Y-34750D01*
X57382Y-34452D01*
X57289Y-34477D01*
X57220Y-34674D01*
X57231Y-34882D01*
X57289Y-35022D01*
X57382Y-35047D01*
X57679Y-34750D01*
X57679Y-34891D01*
X57452Y-35117D01*
X57477Y-35210D01*
X57674Y-35279D01*
X57882Y-35268D01*
X58022Y-35210D01*
X58047Y-35117D01*
X58047Y-38628D01*
X56775Y-39900D01*
X54400Y-39900D01*
X54367Y-39900D01*
X54252Y-39922D01*
X54155Y-39987D01*
X53121Y-41020D01*
X53041Y-40939D01*
X52884Y-40875D01*
X52838Y-40875D01*
X52833Y-40866D01*
X52726Y-40795D01*
X52600Y-40770D01*
X51970Y-40770D01*
X51970Y-39999D01*
X51970Y-39900D01*
X51970Y-39662D01*
X51970Y-39437D01*
X51970Y-39199D01*
X51970Y-39100D01*
X51931Y-39008D01*
X51861Y-38938D01*
X51769Y-38900D01*
X51112Y-38900D01*
X51050Y-38962D01*
X51050Y-39500D01*
X51907Y-39500D01*
X51970Y-39437D01*
X51970Y-39662D01*
X51907Y-39600D01*
X51050Y-39600D01*
X51050Y-40137D01*
X51112Y-40200D01*
X51769Y-40200D01*
X51861Y-40161D01*
X51931Y-40091D01*
X51970Y-39999D01*
X51970Y-40770D01*
X50950Y-40770D01*
X50950Y-40137D01*
X50950Y-39600D01*
X50950Y-39500D01*
X50950Y-38962D01*
X50887Y-38900D01*
X50230Y-38900D01*
X50138Y-38938D01*
X50068Y-39008D01*
X50030Y-39100D01*
X50030Y-39199D01*
X50030Y-39437D01*
X50092Y-39500D01*
X50950Y-39500D01*
X50950Y-39600D01*
X50092Y-39600D01*
X50030Y-39662D01*
X50030Y-39900D01*
X50030Y-39999D01*
X50068Y-40091D01*
X50138Y-40161D01*
X50230Y-40200D01*
X50887Y-40200D01*
X50950Y-40137D01*
X50950Y-40770D01*
X49279Y-40770D01*
X49279Y-38187D01*
X49279Y-37187D01*
X49275Y-37088D01*
X49275Y-35986D01*
X49187Y-35774D01*
X49026Y-35612D01*
X48814Y-35525D01*
X48586Y-35524D01*
X48374Y-35612D01*
X48212Y-35773D01*
X48125Y-35985D01*
X48124Y-36213D01*
X48212Y-36425D01*
X48373Y-36587D01*
X48398Y-36597D01*
X48397Y-36598D01*
X48366Y-36695D01*
X48700Y-37029D01*
X49033Y-36695D01*
X49002Y-36598D01*
X49001Y-36597D01*
X49025Y-36587D01*
X49187Y-36426D01*
X49274Y-36214D01*
X49275Y-35986D01*
X49275Y-37088D01*
X49269Y-36959D01*
X49201Y-36797D01*
X49104Y-36766D01*
X48770Y-37100D01*
X49104Y-37433D01*
X49201Y-37402D01*
X49279Y-37187D01*
X49279Y-38187D01*
X49269Y-37959D01*
X49201Y-37797D01*
X49104Y-37766D01*
X49033Y-37837D01*
X49033Y-37695D01*
X49003Y-37600D01*
X49033Y-37504D01*
X48700Y-37170D01*
X48629Y-37241D01*
X48629Y-37100D01*
X48295Y-36766D01*
X48198Y-36797D01*
X48120Y-37012D01*
X48130Y-37240D01*
X48198Y-37402D01*
X48295Y-37433D01*
X48629Y-37100D01*
X48629Y-37241D01*
X48366Y-37504D01*
X48396Y-37600D01*
X48366Y-37695D01*
X48700Y-38029D01*
X49033Y-37695D01*
X49033Y-37837D01*
X48770Y-38100D01*
X49104Y-38433D01*
X49201Y-38402D01*
X49279Y-38187D01*
X49279Y-40770D01*
X49275Y-40770D01*
X49275Y-40725D01*
X49236Y-40633D01*
X49166Y-40563D01*
X49084Y-40528D01*
X49187Y-40426D01*
X49274Y-40214D01*
X49275Y-39986D01*
X49187Y-39774D01*
X49026Y-39612D01*
X48995Y-39600D01*
X49025Y-39587D01*
X49187Y-39426D01*
X49274Y-39214D01*
X49275Y-38986D01*
X49187Y-38774D01*
X49026Y-38612D01*
X49001Y-38602D01*
X49002Y-38601D01*
X49033Y-38504D01*
X48700Y-38170D01*
X48629Y-38241D01*
X48629Y-38100D01*
X48295Y-37766D01*
X48198Y-37797D01*
X48120Y-38012D01*
X48130Y-38240D01*
X48198Y-38402D01*
X48295Y-38433D01*
X48629Y-38100D01*
X48629Y-38241D01*
X48366Y-38504D01*
X48397Y-38601D01*
X48398Y-38602D01*
X48374Y-38612D01*
X48212Y-38773D01*
X48125Y-38985D01*
X48124Y-39213D01*
X48212Y-39425D01*
X48373Y-39587D01*
X48404Y-39599D01*
X48374Y-39612D01*
X48212Y-39773D01*
X48125Y-39985D01*
X48124Y-40213D01*
X48212Y-40425D01*
X48315Y-40528D01*
X48233Y-40563D01*
X48163Y-40633D01*
X48125Y-40725D01*
X48125Y-40824D01*
X48125Y-41474D01*
X48163Y-41566D01*
X48233Y-41636D01*
X48325Y-41675D01*
X48424Y-41675D01*
X49074Y-41675D01*
X49166Y-41636D01*
X49236Y-41566D01*
X49275Y-41474D01*
X49275Y-41430D01*
X52393Y-41430D01*
X52439Y-41540D01*
X52520Y-41621D01*
X51342Y-42800D01*
X49275Y-42800D01*
X49275Y-42725D01*
X49236Y-42633D01*
X49166Y-42563D01*
X49074Y-42525D01*
X48975Y-42525D01*
X48325Y-42525D01*
X48233Y-42563D01*
X48163Y-42633D01*
X48125Y-42725D01*
X48125Y-42824D01*
X48125Y-43474D01*
X48163Y-43566D01*
X48233Y-43636D01*
X48315Y-43671D01*
X48212Y-43773D01*
X48125Y-43985D01*
X48124Y-44213D01*
X48212Y-44425D01*
X48373Y-44587D01*
X48404Y-44599D01*
X48374Y-44612D01*
X48212Y-44773D01*
X48125Y-44985D01*
X48124Y-45213D01*
X48212Y-45425D01*
X48373Y-45587D01*
X48404Y-45599D01*
X48374Y-45612D01*
X48212Y-45773D01*
X48125Y-45985D01*
X48124Y-46213D01*
X48212Y-46425D01*
X48373Y-46587D01*
X48404Y-46599D01*
X48374Y-46612D01*
X48212Y-46773D01*
X48125Y-46985D01*
X48124Y-47213D01*
X48212Y-47425D01*
X48373Y-47587D01*
X48404Y-47599D01*
X48374Y-47612D01*
X48212Y-47773D01*
X48125Y-47985D01*
X48124Y-48213D01*
X48212Y-48425D01*
X48373Y-48587D01*
X48404Y-48599D01*
X48374Y-48612D01*
X48212Y-48773D01*
X48125Y-48985D01*
X48124Y-49213D01*
X48212Y-49425D01*
X48373Y-49587D01*
X48404Y-49599D01*
X48374Y-49612D01*
X48212Y-49773D01*
X48125Y-49985D01*
X48124Y-50213D01*
X48163Y-50307D01*
X48022Y-50279D01*
X47871Y-50178D01*
X47770Y-50027D01*
X47729Y-49822D01*
X47729Y-33438D01*
X48015Y-33724D01*
X48540Y-33942D01*
X49110Y-33943D01*
X49636Y-33725D01*
X50014Y-33348D01*
X50014Y-34038D01*
X50052Y-34129D01*
X50122Y-34200D01*
X50214Y-34238D01*
X50313Y-34238D01*
X50781Y-34238D01*
X49810Y-35210D01*
X49721Y-35343D01*
X49690Y-35500D01*
X49690Y-36150D01*
X49690Y-36200D01*
X49690Y-36406D01*
X49688Y-36408D01*
X49650Y-36500D01*
X49650Y-36599D01*
X49650Y-37399D01*
X49688Y-37491D01*
X49758Y-37561D01*
X49850Y-37600D01*
X49949Y-37600D01*
X50349Y-37600D01*
X50441Y-37561D01*
X50511Y-37491D01*
X50550Y-37399D01*
X50588Y-37491D01*
X50658Y-37561D01*
X50749Y-37599D01*
X50639Y-37708D01*
X50575Y-37865D01*
X50574Y-38034D01*
X50639Y-38190D01*
X50758Y-38310D01*
X50915Y-38374D01*
X51084Y-38375D01*
X51240Y-38310D01*
X51301Y-38250D01*
X53700Y-38250D01*
X53700Y-38249D01*
X53814Y-38227D01*
X53814Y-38227D01*
X53912Y-38162D01*
X54512Y-37562D01*
X54512Y-37562D01*
X54512Y-37562D01*
X55149Y-36924D01*
X55234Y-36925D01*
X55390Y-36860D01*
X55510Y-36741D01*
X55574Y-36584D01*
X55575Y-36415D01*
X55510Y-36259D01*
X55391Y-36139D01*
X55234Y-36075D01*
X55065Y-36074D01*
X55024Y-36091D01*
X55025Y-35896D01*
X54945Y-35703D01*
X54797Y-35555D01*
X54604Y-35475D01*
X54396Y-35474D01*
X54203Y-35554D01*
X54055Y-35702D01*
X54025Y-35774D01*
X54025Y-35774D01*
X54025Y-35675D01*
X53986Y-35583D01*
X53916Y-35513D01*
X53824Y-35475D01*
X53612Y-35475D01*
X53550Y-35537D01*
X53550Y-35950D01*
X53557Y-35950D01*
X53557Y-36050D01*
X53550Y-36050D01*
X53550Y-36462D01*
X53612Y-36525D01*
X53824Y-36525D01*
X53916Y-36486D01*
X53986Y-36416D01*
X54025Y-36324D01*
X54025Y-36225D01*
X54025Y-36225D01*
X54054Y-36297D01*
X54202Y-36444D01*
X54395Y-36524D01*
X54603Y-36525D01*
X54725Y-36475D01*
X54724Y-36500D01*
X54087Y-37137D01*
X54087Y-37137D01*
X53575Y-37650D01*
X53450Y-37650D01*
X53450Y-36462D01*
X53450Y-36050D01*
X53450Y-35950D01*
X53450Y-35537D01*
X53387Y-35475D01*
X53175Y-35475D01*
X53083Y-35513D01*
X53013Y-35583D01*
X52975Y-35675D01*
X52975Y-35774D01*
X52975Y-35887D01*
X53037Y-35950D01*
X53450Y-35950D01*
X53450Y-36050D01*
X53037Y-36050D01*
X52975Y-36112D01*
X52975Y-36225D01*
X52975Y-36324D01*
X53013Y-36416D01*
X53083Y-36486D01*
X53175Y-36525D01*
X53387Y-36525D01*
X53450Y-36462D01*
X53450Y-37650D01*
X51301Y-37650D01*
X51250Y-37599D01*
X51341Y-37561D01*
X51411Y-37491D01*
X51450Y-37399D01*
X51488Y-37491D01*
X51558Y-37561D01*
X51650Y-37600D01*
X51749Y-37600D01*
X52149Y-37600D01*
X52241Y-37561D01*
X52311Y-37491D01*
X52350Y-37399D01*
X52350Y-37300D01*
X52350Y-36500D01*
X52311Y-36408D01*
X52252Y-36348D01*
X52260Y-36341D01*
X52324Y-36184D01*
X52325Y-36015D01*
X52260Y-35859D01*
X52141Y-35739D01*
X51984Y-35675D01*
X51815Y-35674D01*
X51659Y-35739D01*
X51539Y-35858D01*
X51475Y-36015D01*
X51474Y-36184D01*
X51539Y-36340D01*
X51547Y-36348D01*
X51488Y-36408D01*
X51450Y-36500D01*
X51411Y-36408D01*
X51341Y-36338D01*
X51249Y-36300D01*
X51112Y-36300D01*
X51050Y-36362D01*
X51050Y-36900D01*
X51057Y-36900D01*
X51057Y-37000D01*
X51050Y-37000D01*
X51050Y-37007D01*
X50950Y-37007D01*
X50950Y-37000D01*
X50612Y-37000D01*
X50550Y-37062D01*
X50550Y-36837D01*
X50612Y-36900D01*
X50950Y-36900D01*
X50950Y-36362D01*
X50887Y-36300D01*
X50750Y-36300D01*
X50658Y-36338D01*
X50588Y-36408D01*
X50550Y-36500D01*
X50550Y-36500D01*
X50511Y-36408D01*
X50510Y-36406D01*
X50510Y-36200D01*
X50510Y-36150D01*
X50510Y-35669D01*
X51289Y-34890D01*
X51864Y-34890D01*
X51864Y-35219D01*
X51902Y-35310D01*
X51972Y-35381D01*
X52064Y-35419D01*
X52163Y-35419D01*
X53541Y-35419D01*
X53633Y-35381D01*
X53704Y-35310D01*
X53742Y-35219D01*
X53742Y-35119D01*
X53742Y-34890D01*
X54810Y-34890D01*
X55725Y-35804D01*
X55725Y-36324D01*
X55763Y-36416D01*
X55833Y-36486D01*
X55925Y-36525D01*
X56024Y-36525D01*
X56574Y-36525D01*
X56666Y-36486D01*
X56736Y-36416D01*
X56775Y-36324D01*
X56775Y-36225D01*
X56775Y-36225D01*
X56804Y-36297D01*
X56952Y-36444D01*
X57145Y-36524D01*
X57353Y-36525D01*
X57547Y-36445D01*
X57694Y-36297D01*
X57774Y-36104D01*
X57775Y-35896D01*
X57695Y-35703D01*
X57547Y-35555D01*
X57354Y-35475D01*
X57146Y-35474D01*
X56953Y-35554D01*
X56805Y-35702D01*
X56775Y-35774D01*
X56775Y-35675D01*
X56736Y-35583D01*
X56666Y-35513D01*
X56574Y-35475D01*
X56549Y-35475D01*
X56539Y-35460D01*
X55270Y-34190D01*
X55137Y-34101D01*
X54980Y-34070D01*
X53742Y-34070D01*
X53742Y-33741D01*
X53704Y-33649D01*
X53633Y-33579D01*
X53541Y-33541D01*
X53442Y-33541D01*
X52064Y-33541D01*
X51972Y-33579D01*
X51902Y-33649D01*
X51892Y-33674D01*
X51892Y-32924D01*
X51902Y-32948D01*
X51972Y-33019D01*
X52064Y-33057D01*
X52163Y-33057D01*
X53541Y-33057D01*
X53633Y-33019D01*
X53704Y-32948D01*
X53742Y-32857D01*
X53742Y-32757D01*
X53742Y-31379D01*
X53742Y-31379D01*
X54925Y-31379D01*
X54925Y-31474D01*
X54925Y-32124D01*
X54963Y-32216D01*
X55033Y-32286D01*
X55125Y-32325D01*
X55224Y-32325D01*
X55874Y-32325D01*
X55966Y-32286D01*
X56036Y-32216D01*
X56071Y-32134D01*
X56173Y-32237D01*
X56385Y-32324D01*
X56613Y-32325D01*
X56825Y-32237D01*
X56987Y-32076D01*
X56997Y-32051D01*
X56998Y-32052D01*
X57095Y-32083D01*
X57429Y-31750D01*
X57423Y-31744D01*
X57494Y-31673D01*
X57500Y-31679D01*
X57505Y-31673D01*
X57576Y-31744D01*
X57570Y-31750D01*
X57904Y-32083D01*
X58001Y-32052D01*
X58002Y-32051D01*
X58012Y-32075D01*
X58173Y-32237D01*
X58200Y-32248D01*
X58200Y-34474D01*
X58117Y-34452D01*
X58047Y-34523D01*
X58047Y-34382D01*
X58022Y-34289D01*
X57833Y-34222D01*
X57833Y-32154D01*
X57500Y-31820D01*
X57166Y-32154D01*
X57197Y-32251D01*
X57412Y-32329D01*
X57640Y-32319D01*
X57802Y-32251D01*
X57833Y-32154D01*
X57833Y-34222D01*
X57825Y-34220D01*
X57617Y-34231D01*
X57477Y-34289D01*
X57452Y-34382D01*
X57750Y-34679D01*
X58047Y-34382D01*
X58047Y-34523D01*
X57820Y-34750D01*
X58117Y-35047D01*
X58200Y-35025D01*
X58200Y-36350D01*
X58222Y-36464D01*
X58287Y-36562D01*
X59051Y-37325D01*
X59078Y-37464D01*
X59131Y-37543D01*
X59131Y-37543D01*
G37*
G54D30*
X59131Y-37543D02*
X58047Y-38628D01*
X58047Y-35117D01*
X57750Y-34820D01*
X57679Y-34891D01*
X57679Y-34750D01*
X57382Y-34452D01*
X57289Y-34477D01*
X57220Y-34674D01*
X57231Y-34882D01*
X57289Y-35022D01*
X57382Y-35047D01*
X57679Y-34750D01*
X57679Y-34891D01*
X57452Y-35117D01*
X57477Y-35210D01*
X57674Y-35279D01*
X57882Y-35268D01*
X58022Y-35210D01*
X58047Y-35117D01*
X58047Y-38628D01*
X56775Y-39900D01*
X54400Y-39900D01*
X54367Y-39900D01*
X54252Y-39922D01*
X54155Y-39987D01*
X53121Y-41020D01*
X53041Y-40939D01*
X52884Y-40875D01*
X52838Y-40875D01*
X52833Y-40866D01*
X52726Y-40795D01*
X52600Y-40770D01*
X51970Y-40770D01*
X51970Y-39999D01*
X51970Y-39900D01*
X51970Y-39662D01*
X51970Y-39437D01*
X51970Y-39199D01*
X51970Y-39100D01*
X51931Y-39008D01*
X51861Y-38938D01*
X51769Y-38900D01*
X51112Y-38900D01*
X51050Y-38962D01*
X51050Y-39500D01*
X51907Y-39500D01*
X51970Y-39437D01*
X51970Y-39662D01*
X51907Y-39600D01*
X51050Y-39600D01*
X51050Y-40137D01*
X51112Y-40200D01*
X51769Y-40200D01*
X51861Y-40161D01*
X51931Y-40091D01*
X51970Y-39999D01*
X51970Y-40770D01*
X50950Y-40770D01*
X50950Y-40137D01*
X50950Y-39600D01*
X50950Y-39500D01*
X50950Y-38962D01*
X50887Y-38900D01*
X50230Y-38900D01*
X50138Y-38938D01*
X50068Y-39008D01*
X50030Y-39100D01*
X50030Y-39199D01*
X50030Y-39437D01*
X50092Y-39500D01*
X50950Y-39500D01*
X50950Y-39600D01*
X50092Y-39600D01*
X50030Y-39662D01*
X50030Y-39900D01*
X50030Y-39999D01*
X50068Y-40091D01*
X50138Y-40161D01*
X50230Y-40200D01*
X50887Y-40200D01*
X50950Y-40137D01*
X50950Y-40770D01*
X49279Y-40770D01*
X49279Y-38187D01*
X49279Y-37187D01*
X49275Y-37088D01*
X49275Y-35986D01*
X49187Y-35774D01*
X49026Y-35612D01*
X48814Y-35525D01*
X48586Y-35524D01*
X48374Y-35612D01*
X48212Y-35773D01*
X48125Y-35985D01*
X48124Y-36213D01*
X48212Y-36425D01*
X48373Y-36587D01*
X48398Y-36597D01*
X48397Y-36598D01*
X48366Y-36695D01*
X48700Y-37029D01*
X49033Y-36695D01*
X49002Y-36598D01*
X49001Y-36597D01*
X49025Y-36587D01*
X49187Y-36426D01*
X49274Y-36214D01*
X49275Y-35986D01*
X49275Y-37088D01*
X49269Y-36959D01*
X49201Y-36797D01*
X49104Y-36766D01*
X48770Y-37100D01*
X49104Y-37433D01*
X49201Y-37402D01*
X49279Y-37187D01*
X49279Y-38187D01*
X49269Y-37959D01*
X49201Y-37797D01*
X49104Y-37766D01*
X49033Y-37837D01*
X49033Y-37695D01*
X49003Y-37600D01*
X49033Y-37504D01*
X48700Y-37170D01*
X48629Y-37241D01*
X48629Y-37100D01*
X48295Y-36766D01*
X48198Y-36797D01*
X48120Y-37012D01*
X48130Y-37240D01*
X48198Y-37402D01*
X48295Y-37433D01*
X48629Y-37100D01*
X48629Y-37241D01*
X48366Y-37504D01*
X48396Y-37600D01*
X48366Y-37695D01*
X48700Y-38029D01*
X49033Y-37695D01*
X49033Y-37837D01*
X48770Y-38100D01*
X49104Y-38433D01*
X49201Y-38402D01*
X49279Y-38187D01*
X49279Y-40770D01*
X49275Y-40770D01*
X49275Y-40725D01*
X49236Y-40633D01*
X49166Y-40563D01*
X49084Y-40528D01*
X49187Y-40426D01*
X49274Y-40214D01*
X49275Y-39986D01*
X49187Y-39774D01*
X49026Y-39612D01*
X48995Y-39600D01*
X49025Y-39587D01*
X49187Y-39426D01*
X49274Y-39214D01*
X49275Y-38986D01*
X49187Y-38774D01*
X49026Y-38612D01*
X49001Y-38602D01*
X49002Y-38601D01*
X49033Y-38504D01*
X48700Y-38170D01*
X48629Y-38241D01*
X48629Y-38100D01*
X48295Y-37766D01*
X48198Y-37797D01*
X48120Y-38012D01*
X48130Y-38240D01*
X48198Y-38402D01*
X48295Y-38433D01*
X48629Y-38100D01*
X48629Y-38241D01*
X48366Y-38504D01*
X48397Y-38601D01*
X48398Y-38602D01*
X48374Y-38612D01*
X48212Y-38773D01*
X48125Y-38985D01*
X48124Y-39213D01*
X48212Y-39425D01*
X48373Y-39587D01*
X48404Y-39599D01*
X48374Y-39612D01*
X48212Y-39773D01*
X48125Y-39985D01*
X48124Y-40213D01*
X48212Y-40425D01*
X48315Y-40528D01*
X48233Y-40563D01*
X48163Y-40633D01*
X48125Y-40725D01*
X48125Y-40824D01*
X48125Y-41474D01*
X48163Y-41566D01*
X48233Y-41636D01*
X48325Y-41675D01*
X48424Y-41675D01*
X49074Y-41675D01*
X49166Y-41636D01*
X49236Y-41566D01*
X49275Y-41474D01*
X49275Y-41430D01*
X52393Y-41430D01*
X52439Y-41540D01*
X52520Y-41621D01*
X51342Y-42800D01*
X49275Y-42800D01*
X49275Y-42725D01*
X49236Y-42633D01*
X49166Y-42563D01*
X49074Y-42525D01*
X48975Y-42525D01*
X48325Y-42525D01*
X48233Y-42563D01*
X48163Y-42633D01*
X48125Y-42725D01*
X48125Y-42824D01*
X48125Y-43474D01*
X48163Y-43566D01*
X48233Y-43636D01*
X48315Y-43671D01*
X48212Y-43773D01*
X48125Y-43985D01*
X48124Y-44213D01*
X48212Y-44425D01*
X48373Y-44587D01*
X48404Y-44599D01*
X48374Y-44612D01*
X48212Y-44773D01*
X48125Y-44985D01*
X48124Y-45213D01*
X48212Y-45425D01*
X48373Y-45587D01*
X48404Y-45599D01*
X48374Y-45612D01*
X48212Y-45773D01*
X48125Y-45985D01*
X48124Y-46213D01*
X48212Y-46425D01*
X48373Y-46587D01*
X48404Y-46599D01*
X48374Y-46612D01*
X48212Y-46773D01*
X48125Y-46985D01*
X48124Y-47213D01*
X48212Y-47425D01*
X48373Y-47587D01*
X48404Y-47599D01*
X48374Y-47612D01*
X48212Y-47773D01*
X48125Y-47985D01*
X48124Y-48213D01*
X48212Y-48425D01*
X48373Y-48587D01*
X48404Y-48599D01*
X48374Y-48612D01*
X48212Y-48773D01*
X48125Y-48985D01*
X48124Y-49213D01*
X48212Y-49425D01*
X48373Y-49587D01*
X48404Y-49599D01*
X48374Y-49612D01*
X48212Y-49773D01*
X48125Y-49985D01*
X48124Y-50213D01*
X48163Y-50307D01*
X48022Y-50279D01*
X47871Y-50178D01*
X47770Y-50027D01*
X47729Y-49822D01*
X47729Y-33438D01*
X48015Y-33724D01*
X48540Y-33942D01*
X49110Y-33943D01*
X49636Y-33725D01*
X50014Y-33348D01*
X50014Y-34038D01*
X50052Y-34129D01*
X50122Y-34200D01*
X50214Y-34238D01*
X50313Y-34238D01*
X50781Y-34238D01*
X49810Y-35210D01*
X49721Y-35343D01*
X49690Y-35500D01*
X49690Y-36150D01*
X49690Y-36200D01*
X49690Y-36406D01*
X49688Y-36408D01*
X49650Y-36500D01*
X49650Y-36599D01*
X49650Y-37399D01*
X49688Y-37491D01*
X49758Y-37561D01*
X49850Y-37600D01*
X49949Y-37600D01*
X50349Y-37600D01*
X50441Y-37561D01*
X50511Y-37491D01*
X50550Y-37399D01*
X50588Y-37491D01*
X50658Y-37561D01*
X50749Y-37599D01*
X50639Y-37708D01*
X50575Y-37865D01*
X50574Y-38034D01*
X50639Y-38190D01*
X50758Y-38310D01*
X50915Y-38374D01*
X51084Y-38375D01*
X51240Y-38310D01*
X51301Y-38250D01*
X53700Y-38250D01*
X53700Y-38249D01*
X53814Y-38227D01*
X53814Y-38227D01*
X53912Y-38162D01*
X54512Y-37562D01*
X54512Y-37562D01*
X54512Y-37562D01*
X55149Y-36924D01*
X55234Y-36925D01*
X55390Y-36860D01*
X55510Y-36741D01*
X55574Y-36584D01*
X55575Y-36415D01*
X55510Y-36259D01*
X55391Y-36139D01*
X55234Y-36075D01*
X55065Y-36074D01*
X55024Y-36091D01*
X55025Y-35896D01*
X54945Y-35703D01*
X54797Y-35555D01*
X54604Y-35475D01*
X54396Y-35474D01*
X54203Y-35554D01*
X54055Y-35702D01*
X54025Y-35774D01*
X54025Y-35774D01*
X54025Y-35675D01*
X53986Y-35583D01*
X53916Y-35513D01*
X53824Y-35475D01*
X53612Y-35475D01*
X53550Y-35537D01*
X53550Y-35950D01*
X53557Y-35950D01*
X53557Y-36050D01*
X53550Y-36050D01*
X53550Y-36462D01*
X53612Y-36525D01*
X53824Y-36525D01*
X53916Y-36486D01*
X53986Y-36416D01*
X54025Y-36324D01*
X54025Y-36225D01*
X54025Y-36225D01*
X54054Y-36297D01*
X54202Y-36444D01*
X54395Y-36524D01*
X54603Y-36525D01*
X54725Y-36475D01*
X54724Y-36500D01*
X54087Y-37137D01*
X54087Y-37137D01*
X53575Y-37650D01*
X53450Y-37650D01*
X53450Y-36462D01*
X53450Y-36050D01*
X53450Y-35950D01*
X53450Y-35537D01*
X53387Y-35475D01*
X53175Y-35475D01*
X53083Y-35513D01*
X53013Y-35583D01*
X52975Y-35675D01*
X52975Y-35774D01*
X52975Y-35887D01*
X53037Y-35950D01*
X53450Y-35950D01*
X53450Y-36050D01*
X53037Y-36050D01*
X52975Y-36112D01*
X52975Y-36225D01*
X52975Y-36324D01*
X53013Y-36416D01*
X53083Y-36486D01*
X53175Y-36525D01*
X53387Y-36525D01*
X53450Y-36462D01*
X53450Y-37650D01*
X51301Y-37650D01*
X51250Y-37599D01*
X51341Y-37561D01*
X51411Y-37491D01*
X51450Y-37399D01*
X51488Y-37491D01*
X51558Y-37561D01*
X51650Y-37600D01*
X51749Y-37600D01*
X52149Y-37600D01*
X52241Y-37561D01*
X52311Y-37491D01*
X52350Y-37399D01*
X52350Y-37300D01*
X52350Y-36500D01*
X52311Y-36408D01*
X52252Y-36348D01*
X52260Y-36341D01*
X52324Y-36184D01*
X52325Y-36015D01*
X52260Y-35859D01*
X52141Y-35739D01*
X51984Y-35675D01*
X51815Y-35674D01*
X51659Y-35739D01*
X51539Y-35858D01*
X51475Y-36015D01*
X51474Y-36184D01*
X51539Y-36340D01*
X51547Y-36348D01*
X51488Y-36408D01*
X51450Y-36500D01*
X51411Y-36408D01*
X51341Y-36338D01*
X51249Y-36300D01*
X51112Y-36300D01*
X51050Y-36362D01*
X51050Y-36900D01*
X51057Y-36900D01*
X51057Y-37000D01*
X51050Y-37000D01*
X51050Y-37007D01*
X50950Y-37007D01*
X50950Y-37000D01*
X50612Y-37000D01*
X50550Y-37062D01*
X50550Y-36837D01*
X50612Y-36900D01*
X50950Y-36900D01*
X50950Y-36362D01*
X50887Y-36300D01*
X50750Y-36300D01*
X50658Y-36338D01*
X50588Y-36408D01*
X50550Y-36500D01*
X50550Y-36500D01*
X50511Y-36408D01*
X50510Y-36406D01*
X50510Y-36200D01*
X50510Y-36150D01*
X50510Y-35669D01*
X51289Y-34890D01*
X51864Y-34890D01*
X51864Y-35219D01*
X51902Y-35310D01*
X51972Y-35381D01*
X52064Y-35419D01*
X52163Y-35419D01*
X53541Y-35419D01*
X53633Y-35381D01*
X53704Y-35310D01*
X53742Y-35219D01*
X53742Y-35119D01*
X53742Y-34890D01*
X54810Y-34890D01*
X55725Y-35804D01*
X55725Y-36324D01*
X55763Y-36416D01*
X55833Y-36486D01*
X55925Y-36525D01*
X56024Y-36525D01*
X56574Y-36525D01*
X56666Y-36486D01*
X56736Y-36416D01*
X56775Y-36324D01*
X56775Y-36225D01*
X56775Y-36225D01*
X56804Y-36297D01*
X56952Y-36444D01*
X57145Y-36524D01*
X57353Y-36525D01*
X57547Y-36445D01*
X57694Y-36297D01*
X57774Y-36104D01*
X57775Y-35896D01*
X57695Y-35703D01*
X57547Y-35555D01*
X57354Y-35475D01*
X57146Y-35474D01*
X56953Y-35554D01*
X56805Y-35702D01*
X56775Y-35774D01*
X56775Y-35675D01*
X56736Y-35583D01*
X56666Y-35513D01*
X56574Y-35475D01*
X56549Y-35475D01*
X56539Y-35460D01*
X55270Y-34190D01*
X55137Y-34101D01*
X54980Y-34070D01*
X53742Y-34070D01*
X53742Y-33741D01*
X53704Y-33649D01*
X53633Y-33579D01*
X53541Y-33541D01*
X53442Y-33541D01*
X52064Y-33541D01*
X51972Y-33579D01*
X51902Y-33649D01*
X51892Y-33674D01*
X51892Y-32924D01*
X51902Y-32948D01*
X51972Y-33019D01*
X52064Y-33057D01*
X52163Y-33057D01*
X53541Y-33057D01*
X53633Y-33019D01*
X53704Y-32948D01*
X53742Y-32857D01*
X53742Y-32757D01*
X53742Y-31379D01*
X53742Y-31379D01*
X54925Y-31379D01*
X54925Y-31474D01*
X54925Y-32124D01*
X54963Y-32216D01*
X55033Y-32286D01*
X55125Y-32325D01*
X55224Y-32325D01*
X55874Y-32325D01*
X55966Y-32286D01*
X56036Y-32216D01*
X56071Y-32134D01*
X56173Y-32237D01*
X56385Y-32324D01*
X56613Y-32325D01*
X56825Y-32237D01*
X56987Y-32076D01*
X56997Y-32051D01*
X56998Y-32052D01*
X57095Y-32083D01*
X57429Y-31750D01*
X57423Y-31744D01*
X57494Y-31673D01*
X57500Y-31679D01*
X57505Y-31673D01*
X57576Y-31744D01*
X57570Y-31750D01*
X57904Y-32083D01*
X58001Y-32052D01*
X58002Y-32051D01*
X58012Y-32075D01*
X58173Y-32237D01*
X58200Y-32248D01*
X58200Y-34474D01*
X58117Y-34452D01*
X58047Y-34523D01*
X58047Y-34382D01*
X58022Y-34289D01*
X57833Y-34222D01*
X57833Y-32154D01*
X57500Y-31820D01*
X57166Y-32154D01*
X57197Y-32251D01*
X57412Y-32329D01*
X57640Y-32319D01*
X57802Y-32251D01*
X57833Y-32154D01*
X57833Y-34222D01*
X57825Y-34220D01*
X57617Y-34231D01*
X57477Y-34289D01*
X57452Y-34382D01*
X57750Y-34679D01*
X58047Y-34382D01*
X58047Y-34523D01*
X57820Y-34750D01*
X58117Y-35047D01*
X58200Y-35025D01*
X58200Y-36350D01*
X58222Y-36464D01*
X58287Y-36562D01*
X59051Y-37325D01*
X59078Y-37464D01*
X59131Y-37543D01*
G54D10*
G36*
X63675Y-35950D02*
X63363Y-35950D01*
X63299Y-35854D01*
X63118Y-35732D01*
X62903Y-35690D01*
X62596Y-35690D01*
X62381Y-35732D01*
X62200Y-35854D01*
X62078Y-36035D01*
X62036Y-36250D01*
X62078Y-36464D01*
X62200Y-36645D01*
X62355Y-36749D01*
X62200Y-36854D01*
X62078Y-37035D01*
X62036Y-37250D01*
X62078Y-37464D01*
X62200Y-37645D01*
X62355Y-37749D01*
X62200Y-37854D01*
X62078Y-38035D01*
X62036Y-38250D01*
X62078Y-38464D01*
X62200Y-38645D01*
X62355Y-38749D01*
X62200Y-38854D01*
X62078Y-39035D01*
X62036Y-39250D01*
X62078Y-39464D01*
X62200Y-39645D01*
X62355Y-39749D01*
X62200Y-39854D01*
X62078Y-40035D01*
X62036Y-40250D01*
X62078Y-40464D01*
X62200Y-40645D01*
X62355Y-40749D01*
X62200Y-40854D01*
X62078Y-41035D01*
X62036Y-41250D01*
X62078Y-41464D01*
X62200Y-41645D01*
X62355Y-41749D01*
X62200Y-41854D01*
X62078Y-42035D01*
X62059Y-42134D01*
X61462Y-41537D01*
X61364Y-41472D01*
X61250Y-41450D01*
X60423Y-41450D01*
X60463Y-41250D01*
X60421Y-41035D01*
X60299Y-40854D01*
X60144Y-40749D01*
X60299Y-40645D01*
X60421Y-40464D01*
X60463Y-40250D01*
X60421Y-40035D01*
X60299Y-39854D01*
X60144Y-39749D01*
X60299Y-39645D01*
X60421Y-39464D01*
X60463Y-39250D01*
X60421Y-39035D01*
X60299Y-38854D01*
X60144Y-38749D01*
X60299Y-38645D01*
X60421Y-38464D01*
X60463Y-38250D01*
X60421Y-38035D01*
X60299Y-37854D01*
X60144Y-37749D01*
X60299Y-37645D01*
X60421Y-37464D01*
X60463Y-37250D01*
X60421Y-37035D01*
X60299Y-36854D01*
X60233Y-36810D01*
X60249Y-36810D01*
X60341Y-36771D01*
X60411Y-36701D01*
X60450Y-36609D01*
X60450Y-36510D01*
X60450Y-35890D01*
X60411Y-35798D01*
X60341Y-35728D01*
X60249Y-35690D01*
X60234Y-35690D01*
X60649Y-35274D01*
X60853Y-35275D01*
X61047Y-35195D01*
X61192Y-35050D01*
X61278Y-35050D01*
X61283Y-35061D01*
X61438Y-35215D01*
X61640Y-35299D01*
X61858Y-35300D01*
X62061Y-35216D01*
X62215Y-35061D01*
X62220Y-35050D01*
X62775Y-35050D01*
X63675Y-35950D01*
X63675Y-35950D01*
G37*
G54D30*
X63675Y-35950D02*
X63363Y-35950D01*
X63299Y-35854D01*
X63118Y-35732D01*
X62903Y-35690D01*
X62596Y-35690D01*
X62381Y-35732D01*
X62200Y-35854D01*
X62078Y-36035D01*
X62036Y-36250D01*
X62078Y-36464D01*
X62200Y-36645D01*
X62355Y-36749D01*
X62200Y-36854D01*
X62078Y-37035D01*
X62036Y-37250D01*
X62078Y-37464D01*
X62200Y-37645D01*
X62355Y-37749D01*
X62200Y-37854D01*
X62078Y-38035D01*
X62036Y-38250D01*
X62078Y-38464D01*
X62200Y-38645D01*
X62355Y-38749D01*
X62200Y-38854D01*
X62078Y-39035D01*
X62036Y-39250D01*
X62078Y-39464D01*
X62200Y-39645D01*
X62355Y-39749D01*
X62200Y-39854D01*
X62078Y-40035D01*
X62036Y-40250D01*
X62078Y-40464D01*
X62200Y-40645D01*
X62355Y-40749D01*
X62200Y-40854D01*
X62078Y-41035D01*
X62036Y-41250D01*
X62078Y-41464D01*
X62200Y-41645D01*
X62355Y-41749D01*
X62200Y-41854D01*
X62078Y-42035D01*
X62059Y-42134D01*
X61462Y-41537D01*
X61364Y-41472D01*
X61250Y-41450D01*
X60423Y-41450D01*
X60463Y-41250D01*
X60421Y-41035D01*
X60299Y-40854D01*
X60144Y-40749D01*
X60299Y-40645D01*
X60421Y-40464D01*
X60463Y-40250D01*
X60421Y-40035D01*
X60299Y-39854D01*
X60144Y-39749D01*
X60299Y-39645D01*
X60421Y-39464D01*
X60463Y-39250D01*
X60421Y-39035D01*
X60299Y-38854D01*
X60144Y-38749D01*
X60299Y-38645D01*
X60421Y-38464D01*
X60463Y-38250D01*
X60421Y-38035D01*
X60299Y-37854D01*
X60144Y-37749D01*
X60299Y-37645D01*
X60421Y-37464D01*
X60463Y-37250D01*
X60421Y-37035D01*
X60299Y-36854D01*
X60233Y-36810D01*
X60249Y-36810D01*
X60341Y-36771D01*
X60411Y-36701D01*
X60450Y-36609D01*
X60450Y-36510D01*
X60450Y-35890D01*
X60411Y-35798D01*
X60341Y-35728D01*
X60249Y-35690D01*
X60234Y-35690D01*
X60649Y-35274D01*
X60853Y-35275D01*
X61047Y-35195D01*
X61192Y-35050D01*
X61278Y-35050D01*
X61283Y-35061D01*
X61438Y-35215D01*
X61640Y-35299D01*
X61858Y-35300D01*
X62061Y-35216D01*
X62215Y-35061D01*
X62220Y-35050D01*
X62775Y-35050D01*
X63675Y-35950D01*
G54D10*
G36*
X64809Y-33750D02*
X64600Y-33750D01*
X64508Y-33788D01*
X64438Y-33858D01*
X64400Y-33950D01*
X64400Y-34049D01*
X64400Y-34649D01*
X64438Y-34741D01*
X64508Y-34811D01*
X64600Y-34850D01*
X64622Y-34850D01*
X64484Y-34988D01*
X64400Y-35190D01*
X64399Y-35408D01*
X64483Y-35611D01*
X64638Y-35765D01*
X64719Y-35799D01*
X64638Y-35833D01*
X64523Y-35948D01*
X63869Y-35295D01*
X64061Y-35216D01*
X64215Y-35061D01*
X64299Y-34859D01*
X64300Y-34641D01*
X64216Y-34438D01*
X64061Y-34284D01*
X63859Y-34200D01*
X63641Y-34199D01*
X63438Y-34283D01*
X63284Y-34438D01*
X63204Y-34630D01*
X63112Y-34537D01*
X63014Y-34472D01*
X62900Y-34450D01*
X62221Y-34450D01*
X62216Y-34438D01*
X62061Y-34284D01*
X62050Y-34279D01*
X62050Y-32221D01*
X62061Y-32216D01*
X62215Y-32061D01*
X62299Y-31859D01*
X62300Y-31641D01*
X62216Y-31438D01*
X62157Y-31379D01*
X63342Y-31379D01*
X63284Y-31438D01*
X63200Y-31640D01*
X63199Y-31858D01*
X63283Y-32061D01*
X63438Y-32215D01*
X63640Y-32299D01*
X63858Y-32300D01*
X64061Y-32216D01*
X64182Y-32095D01*
X64128Y-32225D01*
X64127Y-32795D01*
X64345Y-33321D01*
X64747Y-33724D01*
X64809Y-33750D01*
X64809Y-33750D01*
G37*
G54D30*
X64809Y-33750D02*
X64600Y-33750D01*
X64508Y-33788D01*
X64438Y-33858D01*
X64400Y-33950D01*
X64400Y-34049D01*
X64400Y-34649D01*
X64438Y-34741D01*
X64508Y-34811D01*
X64600Y-34850D01*
X64622Y-34850D01*
X64484Y-34988D01*
X64400Y-35190D01*
X64399Y-35408D01*
X64483Y-35611D01*
X64638Y-35765D01*
X64719Y-35799D01*
X64638Y-35833D01*
X64523Y-35948D01*
X63869Y-35295D01*
X64061Y-35216D01*
X64215Y-35061D01*
X64299Y-34859D01*
X64300Y-34641D01*
X64216Y-34438D01*
X64061Y-34284D01*
X63859Y-34200D01*
X63641Y-34199D01*
X63438Y-34283D01*
X63284Y-34438D01*
X63204Y-34630D01*
X63112Y-34537D01*
X63014Y-34472D01*
X62900Y-34450D01*
X62221Y-34450D01*
X62216Y-34438D01*
X62061Y-34284D01*
X62050Y-34279D01*
X62050Y-32221D01*
X62061Y-32216D01*
X62215Y-32061D01*
X62299Y-31859D01*
X62300Y-31641D01*
X62216Y-31438D01*
X62157Y-31379D01*
X63342Y-31379D01*
X63284Y-31438D01*
X63200Y-31640D01*
X63199Y-31858D01*
X63283Y-32061D01*
X63438Y-32215D01*
X63640Y-32299D01*
X63858Y-32300D01*
X64061Y-32216D01*
X64182Y-32095D01*
X64128Y-32225D01*
X64127Y-32795D01*
X64345Y-33321D01*
X64747Y-33724D01*
X64809Y-33750D01*
G54D10*
G36*
X66154Y-44320D02*
X65910Y-44564D01*
X65814Y-44525D01*
X65586Y-44524D01*
X65374Y-44612D01*
X65212Y-44773D01*
X65201Y-44800D01*
X65100Y-44800D01*
X64985Y-44822D01*
X64946Y-44848D01*
X64887Y-44887D01*
X64529Y-45245D01*
X64529Y-44325D01*
X64518Y-44117D01*
X64460Y-43977D01*
X64367Y-43952D01*
X64070Y-44250D01*
X64367Y-44547D01*
X64460Y-44522D01*
X64529Y-44325D01*
X64529Y-45245D01*
X64524Y-45250D01*
X64525Y-45146D01*
X64445Y-44953D01*
X64297Y-44805D01*
X64171Y-44752D01*
X64272Y-44710D01*
X64297Y-44617D01*
X64000Y-44320D01*
X63929Y-44391D01*
X63929Y-44250D01*
X63632Y-43952D01*
X63539Y-43977D01*
X63470Y-44174D01*
X63481Y-44382D01*
X63539Y-44522D01*
X63632Y-44547D01*
X63929Y-44250D01*
X63929Y-44391D01*
X63702Y-44617D01*
X63727Y-44710D01*
X63837Y-44749D01*
X63703Y-44804D01*
X63555Y-44952D01*
X63475Y-45145D01*
X63475Y-45200D01*
X63448Y-45174D01*
X63421Y-45035D01*
X63299Y-44854D01*
X63144Y-44750D01*
X63150Y-44748D01*
X63321Y-44610D01*
X63426Y-44418D01*
X63433Y-44386D01*
X63384Y-44300D01*
X62800Y-44300D01*
X62800Y-44307D01*
X62700Y-44307D01*
X62700Y-44300D01*
X62115Y-44300D01*
X62066Y-44386D01*
X62073Y-44418D01*
X62178Y-44610D01*
X62349Y-44748D01*
X62355Y-44750D01*
X62200Y-44854D01*
X62078Y-45035D01*
X62036Y-45250D01*
X62078Y-45464D01*
X62200Y-45645D01*
X62355Y-45749D01*
X62200Y-45854D01*
X62078Y-46035D01*
X62036Y-46250D01*
X62078Y-46464D01*
X62200Y-46645D01*
X62355Y-46749D01*
X62200Y-46854D01*
X62078Y-47035D01*
X62036Y-47250D01*
X62078Y-47464D01*
X62200Y-47645D01*
X62355Y-47749D01*
X62200Y-47854D01*
X62078Y-48035D01*
X62036Y-48250D01*
X62078Y-48464D01*
X62200Y-48645D01*
X62355Y-48749D01*
X62200Y-48854D01*
X62078Y-49035D01*
X62036Y-49250D01*
X62078Y-49464D01*
X62200Y-49645D01*
X62381Y-49767D01*
X62506Y-49792D01*
X62439Y-49858D01*
X62375Y-50015D01*
X62374Y-50184D01*
X62431Y-50320D01*
X58140Y-50320D01*
X58405Y-50055D01*
X58623Y-49530D01*
X58624Y-48960D01*
X58406Y-48434D01*
X58004Y-48031D01*
X57478Y-47813D01*
X56909Y-47812D01*
X56383Y-48030D01*
X55980Y-48432D01*
X55762Y-48958D01*
X55761Y-49527D01*
X55978Y-50053D01*
X56245Y-50320D01*
X55259Y-50320D01*
X55328Y-50291D01*
X55491Y-50128D01*
X55579Y-49915D01*
X55580Y-49685D01*
X55491Y-49471D01*
X55328Y-49308D01*
X55308Y-49300D01*
X55328Y-49291D01*
X55491Y-49128D01*
X55579Y-48915D01*
X55580Y-48685D01*
X55492Y-48473D01*
X55495Y-48474D01*
X55703Y-48475D01*
X55897Y-48395D01*
X56044Y-48247D01*
X56124Y-48054D01*
X56125Y-47846D01*
X56106Y-47800D01*
X58825Y-47800D01*
X59076Y-48050D01*
X59036Y-48250D01*
X59078Y-48464D01*
X59200Y-48645D01*
X59355Y-48749D01*
X59200Y-48854D01*
X59078Y-49035D01*
X59036Y-49250D01*
X59078Y-49464D01*
X59200Y-49645D01*
X59381Y-49767D01*
X59596Y-49810D01*
X59903Y-49810D01*
X60118Y-49767D01*
X60299Y-49645D01*
X60421Y-49464D01*
X60463Y-49250D01*
X60421Y-49035D01*
X60299Y-48854D01*
X60144Y-48749D01*
X60299Y-48645D01*
X60421Y-48464D01*
X60463Y-48250D01*
X60421Y-48035D01*
X60299Y-47854D01*
X60144Y-47749D01*
X60299Y-47645D01*
X60421Y-47464D01*
X60463Y-47250D01*
X60421Y-47035D01*
X60299Y-46854D01*
X60144Y-46749D01*
X60299Y-46645D01*
X60421Y-46464D01*
X60463Y-46250D01*
X60421Y-46035D01*
X60299Y-45854D01*
X60144Y-45749D01*
X60299Y-45645D01*
X60421Y-45464D01*
X60463Y-45250D01*
X60421Y-45035D01*
X60299Y-44854D01*
X60144Y-44749D01*
X60299Y-44645D01*
X60421Y-44464D01*
X60463Y-44250D01*
X60421Y-44035D01*
X60299Y-43854D01*
X60144Y-43749D01*
X60299Y-43645D01*
X60421Y-43464D01*
X60463Y-43250D01*
X60421Y-43035D01*
X60299Y-42854D01*
X60144Y-42750D01*
X60150Y-42748D01*
X60321Y-42610D01*
X60426Y-42418D01*
X60433Y-42386D01*
X60384Y-42300D01*
X59800Y-42300D01*
X59800Y-42307D01*
X59700Y-42307D01*
X59700Y-42300D01*
X59115Y-42300D01*
X59066Y-42386D01*
X59073Y-42418D01*
X59178Y-42610D01*
X59349Y-42748D01*
X59355Y-42750D01*
X59200Y-42854D01*
X59078Y-43035D01*
X59036Y-43250D01*
X59078Y-43464D01*
X59200Y-43645D01*
X59355Y-43749D01*
X59312Y-43779D01*
X59029Y-43497D01*
X59029Y-42325D01*
X59018Y-42117D01*
X58960Y-41977D01*
X58867Y-41952D01*
X58570Y-42250D01*
X58867Y-42547D01*
X58960Y-42522D01*
X59029Y-42325D01*
X59029Y-43497D01*
X58984Y-43451D01*
X59024Y-43354D01*
X59025Y-43146D01*
X58945Y-42953D01*
X58797Y-42805D01*
X58671Y-42752D01*
X58772Y-42710D01*
X58797Y-42617D01*
X58500Y-42320D01*
X58494Y-42326D01*
X58423Y-42255D01*
X58429Y-42250D01*
X58423Y-42244D01*
X58494Y-42173D01*
X58500Y-42179D01*
X58797Y-41882D01*
X58775Y-41800D01*
X58875Y-41800D01*
X59037Y-41962D01*
X59096Y-42001D01*
X59111Y-42011D01*
X59073Y-42081D01*
X59066Y-42113D01*
X59115Y-42200D01*
X59700Y-42200D01*
X59700Y-42192D01*
X59800Y-42192D01*
X59800Y-42200D01*
X60384Y-42200D01*
X60433Y-42113D01*
X60426Y-42081D01*
X60409Y-42050D01*
X61125Y-42050D01*
X62091Y-43016D01*
X62078Y-43035D01*
X62036Y-43250D01*
X62078Y-43464D01*
X62200Y-43645D01*
X62355Y-43749D01*
X62349Y-43751D01*
X62178Y-43889D01*
X62073Y-44081D01*
X62066Y-44113D01*
X62115Y-44200D01*
X62700Y-44200D01*
X62700Y-44192D01*
X62800Y-44192D01*
X62800Y-44200D01*
X63384Y-44200D01*
X63433Y-44113D01*
X63426Y-44081D01*
X63321Y-43889D01*
X63150Y-43751D01*
X63144Y-43749D01*
X63299Y-43645D01*
X63363Y-43550D01*
X63557Y-43550D01*
X63702Y-43694D01*
X63828Y-43747D01*
X63727Y-43789D01*
X63702Y-43882D01*
X64000Y-44179D01*
X64297Y-43882D01*
X64272Y-43789D01*
X64162Y-43750D01*
X64297Y-43695D01*
X64444Y-43547D01*
X64524Y-43354D01*
X64525Y-43146D01*
X64445Y-42953D01*
X64297Y-42805D01*
X64164Y-42749D01*
X64297Y-42695D01*
X64444Y-42547D01*
X64524Y-42354D01*
X64524Y-42349D01*
X65125Y-42949D01*
X65125Y-43474D01*
X65163Y-43566D01*
X65233Y-43636D01*
X65325Y-43675D01*
X65424Y-43675D01*
X66074Y-43675D01*
X66154Y-43641D01*
X66154Y-44320D01*
X66154Y-44320D01*
G37*
G54D30*
X66154Y-44320D02*
X65910Y-44564D01*
X65814Y-44525D01*
X65586Y-44524D01*
X65374Y-44612D01*
X65212Y-44773D01*
X65201Y-44800D01*
X65100Y-44800D01*
X64985Y-44822D01*
X64946Y-44848D01*
X64887Y-44887D01*
X64529Y-45245D01*
X64529Y-44325D01*
X64518Y-44117D01*
X64460Y-43977D01*
X64367Y-43952D01*
X64070Y-44250D01*
X64367Y-44547D01*
X64460Y-44522D01*
X64529Y-44325D01*
X64529Y-45245D01*
X64524Y-45250D01*
X64525Y-45146D01*
X64445Y-44953D01*
X64297Y-44805D01*
X64171Y-44752D01*
X64272Y-44710D01*
X64297Y-44617D01*
X64000Y-44320D01*
X63929Y-44391D01*
X63929Y-44250D01*
X63632Y-43952D01*
X63539Y-43977D01*
X63470Y-44174D01*
X63481Y-44382D01*
X63539Y-44522D01*
X63632Y-44547D01*
X63929Y-44250D01*
X63929Y-44391D01*
X63702Y-44617D01*
X63727Y-44710D01*
X63837Y-44749D01*
X63703Y-44804D01*
X63555Y-44952D01*
X63475Y-45145D01*
X63475Y-45200D01*
X63448Y-45174D01*
X63421Y-45035D01*
X63299Y-44854D01*
X63144Y-44750D01*
X63150Y-44748D01*
X63321Y-44610D01*
X63426Y-44418D01*
X63433Y-44386D01*
X63384Y-44300D01*
X62800Y-44300D01*
X62800Y-44307D01*
X62700Y-44307D01*
X62700Y-44300D01*
X62115Y-44300D01*
X62066Y-44386D01*
X62073Y-44418D01*
X62178Y-44610D01*
X62349Y-44748D01*
X62355Y-44750D01*
X62200Y-44854D01*
X62078Y-45035D01*
X62036Y-45250D01*
X62078Y-45464D01*
X62200Y-45645D01*
X62355Y-45749D01*
X62200Y-45854D01*
X62078Y-46035D01*
X62036Y-46250D01*
X62078Y-46464D01*
X62200Y-46645D01*
X62355Y-46749D01*
X62200Y-46854D01*
X62078Y-47035D01*
X62036Y-47250D01*
X62078Y-47464D01*
X62200Y-47645D01*
X62355Y-47749D01*
X62200Y-47854D01*
X62078Y-48035D01*
X62036Y-48250D01*
X62078Y-48464D01*
X62200Y-48645D01*
X62355Y-48749D01*
X62200Y-48854D01*
X62078Y-49035D01*
X62036Y-49250D01*
X62078Y-49464D01*
X62200Y-49645D01*
X62381Y-49767D01*
X62506Y-49792D01*
X62439Y-49858D01*
X62375Y-50015D01*
X62374Y-50184D01*
X62431Y-50320D01*
X58140Y-50320D01*
X58405Y-50055D01*
X58623Y-49530D01*
X58624Y-48960D01*
X58406Y-48434D01*
X58004Y-48031D01*
X57478Y-47813D01*
X56909Y-47812D01*
X56383Y-48030D01*
X55980Y-48432D01*
X55762Y-48958D01*
X55761Y-49527D01*
X55978Y-50053D01*
X56245Y-50320D01*
X55259Y-50320D01*
X55328Y-50291D01*
X55491Y-50128D01*
X55579Y-49915D01*
X55580Y-49685D01*
X55491Y-49471D01*
X55328Y-49308D01*
X55308Y-49300D01*
X55328Y-49291D01*
X55491Y-49128D01*
X55579Y-48915D01*
X55580Y-48685D01*
X55492Y-48473D01*
X55495Y-48474D01*
X55703Y-48475D01*
X55897Y-48395D01*
X56044Y-48247D01*
X56124Y-48054D01*
X56125Y-47846D01*
X56106Y-47800D01*
X58825Y-47800D01*
X59076Y-48050D01*
X59036Y-48250D01*
X59078Y-48464D01*
X59200Y-48645D01*
X59355Y-48749D01*
X59200Y-48854D01*
X59078Y-49035D01*
X59036Y-49250D01*
X59078Y-49464D01*
X59200Y-49645D01*
X59381Y-49767D01*
X59596Y-49810D01*
X59903Y-49810D01*
X60118Y-49767D01*
X60299Y-49645D01*
X60421Y-49464D01*
X60463Y-49250D01*
X60421Y-49035D01*
X60299Y-48854D01*
X60144Y-48749D01*
X60299Y-48645D01*
X60421Y-48464D01*
X60463Y-48250D01*
X60421Y-48035D01*
X60299Y-47854D01*
X60144Y-47749D01*
X60299Y-47645D01*
X60421Y-47464D01*
X60463Y-47250D01*
X60421Y-47035D01*
X60299Y-46854D01*
X60144Y-46749D01*
X60299Y-46645D01*
X60421Y-46464D01*
X60463Y-46250D01*
X60421Y-46035D01*
X60299Y-45854D01*
X60144Y-45749D01*
X60299Y-45645D01*
X60421Y-45464D01*
X60463Y-45250D01*
X60421Y-45035D01*
X60299Y-44854D01*
X60144Y-44749D01*
X60299Y-44645D01*
X60421Y-44464D01*
X60463Y-44250D01*
X60421Y-44035D01*
X60299Y-43854D01*
X60144Y-43749D01*
X60299Y-43645D01*
X60421Y-43464D01*
X60463Y-43250D01*
X60421Y-43035D01*
X60299Y-42854D01*
X60144Y-42750D01*
X60150Y-42748D01*
X60321Y-42610D01*
X60426Y-42418D01*
X60433Y-42386D01*
X60384Y-42300D01*
X59800Y-42300D01*
X59800Y-42307D01*
X59700Y-42307D01*
X59700Y-42300D01*
X59115Y-42300D01*
X59066Y-42386D01*
X59073Y-42418D01*
X59178Y-42610D01*
X59349Y-42748D01*
X59355Y-42750D01*
X59200Y-42854D01*
X59078Y-43035D01*
X59036Y-43250D01*
X59078Y-43464D01*
X59200Y-43645D01*
X59355Y-43749D01*
X59312Y-43779D01*
X59029Y-43497D01*
X59029Y-42325D01*
X59018Y-42117D01*
X58960Y-41977D01*
X58867Y-41952D01*
X58570Y-42250D01*
X58867Y-42547D01*
X58960Y-42522D01*
X59029Y-42325D01*
X59029Y-43497D01*
X58984Y-43451D01*
X59024Y-43354D01*
X59025Y-43146D01*
X58945Y-42953D01*
X58797Y-42805D01*
X58671Y-42752D01*
X58772Y-42710D01*
X58797Y-42617D01*
X58500Y-42320D01*
X58494Y-42326D01*
X58423Y-42255D01*
X58429Y-42250D01*
X58423Y-42244D01*
X58494Y-42173D01*
X58500Y-42179D01*
X58797Y-41882D01*
X58775Y-41800D01*
X58875Y-41800D01*
X59037Y-41962D01*
X59096Y-42001D01*
X59111Y-42011D01*
X59073Y-42081D01*
X59066Y-42113D01*
X59115Y-42200D01*
X59700Y-42200D01*
X59700Y-42192D01*
X59800Y-42192D01*
X59800Y-42200D01*
X60384Y-42200D01*
X60433Y-42113D01*
X60426Y-42081D01*
X60409Y-42050D01*
X61125Y-42050D01*
X62091Y-43016D01*
X62078Y-43035D01*
X62036Y-43250D01*
X62078Y-43464D01*
X62200Y-43645D01*
X62355Y-43749D01*
X62349Y-43751D01*
X62178Y-43889D01*
X62073Y-44081D01*
X62066Y-44113D01*
X62115Y-44200D01*
X62700Y-44200D01*
X62700Y-44192D01*
X62800Y-44192D01*
X62800Y-44200D01*
X63384Y-44200D01*
X63433Y-44113D01*
X63426Y-44081D01*
X63321Y-43889D01*
X63150Y-43751D01*
X63144Y-43749D01*
X63299Y-43645D01*
X63363Y-43550D01*
X63557Y-43550D01*
X63702Y-43694D01*
X63828Y-43747D01*
X63727Y-43789D01*
X63702Y-43882D01*
X64000Y-44179D01*
X64297Y-43882D01*
X64272Y-43789D01*
X64162Y-43750D01*
X64297Y-43695D01*
X64444Y-43547D01*
X64524Y-43354D01*
X64525Y-43146D01*
X64445Y-42953D01*
X64297Y-42805D01*
X64164Y-42749D01*
X64297Y-42695D01*
X64444Y-42547D01*
X64524Y-42354D01*
X64524Y-42349D01*
X65125Y-42949D01*
X65125Y-43474D01*
X65163Y-43566D01*
X65233Y-43636D01*
X65325Y-43675D01*
X65424Y-43675D01*
X66074Y-43675D01*
X66154Y-43641D01*
X66154Y-44320D01*
G54D10*
G36*
X66670Y-35146D02*
X66612Y-35087D01*
X66514Y-35022D01*
X66504Y-35020D01*
X66504Y-34381D01*
X66493Y-34163D01*
X66431Y-34012D01*
X66335Y-33984D01*
X66020Y-34300D01*
X66335Y-34615D01*
X66431Y-34587D01*
X66504Y-34381D01*
X66504Y-35020D01*
X66423Y-35004D01*
X66416Y-34988D01*
X66261Y-34834D01*
X66186Y-34802D01*
X66237Y-34781D01*
X66265Y-34685D01*
X65950Y-34370D01*
X65634Y-34685D01*
X65662Y-34781D01*
X65717Y-34800D01*
X65638Y-34833D01*
X65484Y-34988D01*
X65450Y-35069D01*
X65416Y-34988D01*
X65277Y-34850D01*
X65299Y-34850D01*
X65391Y-34811D01*
X65461Y-34741D01*
X65500Y-34649D01*
X65500Y-34596D01*
X65564Y-34615D01*
X65879Y-34300D01*
X65873Y-34294D01*
X65944Y-34223D01*
X65950Y-34229D01*
X66265Y-33914D01*
X66237Y-33818D01*
X66187Y-33800D01*
X66368Y-33725D01*
X66670Y-33424D01*
X66670Y-35146D01*
X66670Y-35146D01*
G37*
G54D30*
X66670Y-35146D02*
X66612Y-35087D01*
X66514Y-35022D01*
X66504Y-35020D01*
X66504Y-34381D01*
X66493Y-34163D01*
X66431Y-34012D01*
X66335Y-33984D01*
X66020Y-34300D01*
X66335Y-34615D01*
X66431Y-34587D01*
X66504Y-34381D01*
X66504Y-35020D01*
X66423Y-35004D01*
X66416Y-34988D01*
X66261Y-34834D01*
X66186Y-34802D01*
X66237Y-34781D01*
X66265Y-34685D01*
X65950Y-34370D01*
X65634Y-34685D01*
X65662Y-34781D01*
X65717Y-34800D01*
X65638Y-34833D01*
X65484Y-34988D01*
X65450Y-35069D01*
X65416Y-34988D01*
X65277Y-34850D01*
X65299Y-34850D01*
X65391Y-34811D01*
X65461Y-34741D01*
X65500Y-34649D01*
X65500Y-34596D01*
X65564Y-34615D01*
X65879Y-34300D01*
X65873Y-34294D01*
X65944Y-34223D01*
X65950Y-34229D01*
X66265Y-33914D01*
X66237Y-33818D01*
X66187Y-33800D01*
X66368Y-33725D01*
X66670Y-33424D01*
X66670Y-35146D01*
M02*
