M48
INCH,TZ
T1C0.025
T2C0.032
T3C0.032
T4C0.036
T5C0.039
T6C0.040
T7C0.060
T8C0.138
%
G90
G05
T1
X051000Y-037950
X051900Y-036100
X052800Y-041300
X054250Y-042050
X055150Y-036500
X059000Y-036200
X062800Y-050100
T2
X054750Y-043250
X054750Y-044250
X054750Y-045250
X054750Y-046250
X056500Y-043789
X056500Y-045711
T3
X053500Y-036000
X054500Y-036000
X054600Y-047950
X055000Y-048800
X055000Y-049800
X055600Y-047950
X056250Y-036000
X057250Y-036000
X057750Y-034750
X058500Y-042250
X058500Y-043250
X059650Y-033750
X059750Y-036250
X059750Y-037250
X059750Y-038250
X059750Y-039250
X059750Y-040250
X059750Y-041250
X059750Y-042250
X059750Y-043250
X059750Y-044250
X059750Y-045250
X059750Y-046250
X059750Y-047250
X059750Y-048250
X059750Y-049250
X060650Y-033750
X060750Y-034750
X062750Y-036250
X062750Y-037250
X062750Y-038250
X062750Y-039250
X062750Y-040250
X062750Y-041250
X062750Y-042250
X062750Y-043250
X062750Y-044250
X062750Y-045250
X062750Y-046250
X062750Y-047250
X062750Y-048250
X062750Y-049250
X064000Y-042250
X064000Y-043250
X064000Y-044250
X064000Y-045250
T4
X061750Y-031750
X061750Y-034750
X063750Y-031750
X063750Y-034750
T6
X048700Y-036100
X048700Y-037100
X048700Y-038100
X048700Y-039100
X048700Y-040100
X048700Y-041100
X048700Y-043100
X048700Y-044100
X048700Y-045100
X048700Y-046100
X048700Y-047100
X048700Y-048100
X048700Y-049100
X048700Y-050100
X050800Y-040450
X055500Y-031750
X056500Y-031750
X057500Y-031750
X058250Y-038050
X058500Y-031750
X059500Y-031750
X060500Y-031750
X060800Y-035900
X063100Y-034300
X064950Y-034300
X064950Y-035300
X064950Y-036300
X065700Y-038100
X065700Y-039100
X065700Y-040100
X065700Y-041100
X065700Y-042100
X065700Y-043100
X065700Y-045100
X065700Y-046100
X065700Y-047100
X065700Y-048100
X065700Y-049100
X065700Y-050100
X065950Y-034300
X065950Y-035300
X065950Y-036300
T7
X050800Y-049850
X052800Y-049850
T8
X048827Y-032512
X057193Y-049244
X065559Y-032512
T5
X050953Y-032906G85X050953Y-033693
G05
X053197Y-032118G85X052410Y-032118
G05
X053197Y-034480G85X052410Y-034480
G05
T0
M30
