%FSLAX34Y34*%
G04 Gerber Fmt 3.4, Leading zero omitted, Abs format*
G04 (created by PCBNEW (2013-12-28 BZR 4579)-product) date tor 16 jan 2014 22:13:37 CET*
%MOIN*%
G01*
G70*
G90*
G04 APERTURE LIST*
%ADD10C,0.006000*%
%ADD11C,0.009843*%
%ADD12C,0.012000*%
%ADD13C,0.008000*%
%ADD14R,0.100000X0.100000*%
%ADD15C,0.100000*%
%ADD16R,0.055000X0.055000*%
%ADD17C,0.055000*%
%ADD18R,0.137800X0.137800*%
%ADD19O,0.090000X0.062000*%
%ADD20R,0.090000X0.062000*%
%ADD21C,0.236220*%
%ADD22C,0.060000*%
%ADD23C,0.066000*%
%ADD24C,0.059100*%
%ADD25R,0.065000X0.065000*%
%ADD26C,0.065000*%
%ADD27R,0.060000X0.060000*%
%ADD28R,0.144000X0.080000*%
%ADD29R,0.040000X0.080000*%
G04 APERTURE END LIST*
G54D10*
G54D11*
X50349Y-33628D02*
X50050Y-33628D01*
X52349Y-33628D02*
X52050Y-33628D01*
X52199Y-33778D02*
X52199Y-33478D01*
G54D12*
X52650Y-44950D02*
G75*
G03X52650Y-44950I-250J0D01*
G74*
G01*
X52701Y-45525D02*
G75*
G03X52701Y-45525I-301J0D01*
G74*
G01*
G54D13*
X53010Y-45700D02*
G75*
G03X53010Y-45700I-110J0D01*
G74*
G01*
X52900Y-45000D02*
X52900Y-45200D01*
G54D14*
X50800Y-49850D03*
G54D15*
X52800Y-49850D03*
G54D16*
X53500Y-36000D03*
G54D17*
X54500Y-36000D03*
G54D16*
X56250Y-36000D03*
G54D17*
X57250Y-36000D03*
G54D18*
X52803Y-34480D03*
X52803Y-32118D03*
X50953Y-33299D03*
G54D19*
X59750Y-37250D03*
X59750Y-38250D03*
X59750Y-39250D03*
X59750Y-40250D03*
X59750Y-41250D03*
X59750Y-42250D03*
X59750Y-43250D03*
X59750Y-44250D03*
X59750Y-45250D03*
X59750Y-46250D03*
X59750Y-47250D03*
X59750Y-48250D03*
X59750Y-49250D03*
G54D20*
X59750Y-36250D03*
G54D19*
X62750Y-49250D03*
X62750Y-48250D03*
X62750Y-47250D03*
X62750Y-46250D03*
X62750Y-45250D03*
X62750Y-44250D03*
X62750Y-43250D03*
X62750Y-42250D03*
X62750Y-41250D03*
X62750Y-40250D03*
X62750Y-39250D03*
X62750Y-38250D03*
X62750Y-37250D03*
X62750Y-36250D03*
G54D21*
X57192Y-49244D03*
X65559Y-32511D03*
X48826Y-32511D03*
G54D17*
X58500Y-42250D03*
X58500Y-43250D03*
X64000Y-44250D03*
X64000Y-45250D03*
X64000Y-43250D03*
X64000Y-42250D03*
X57750Y-34750D03*
X60750Y-34750D03*
G54D22*
X63750Y-34750D03*
X61750Y-34750D03*
X63750Y-31750D03*
X61750Y-31750D03*
G54D23*
X55000Y-48800D03*
X55000Y-49800D03*
G54D24*
X56500Y-45711D03*
X56500Y-43789D03*
G54D25*
X48700Y-41100D03*
G54D26*
X48700Y-40100D03*
X48700Y-39100D03*
X48700Y-38100D03*
X48700Y-37100D03*
X48700Y-36100D03*
G54D25*
X65700Y-43100D03*
G54D26*
X65700Y-42100D03*
X65700Y-41100D03*
X65700Y-40100D03*
X65700Y-39100D03*
X65700Y-38100D03*
G54D25*
X48700Y-43100D03*
G54D26*
X48700Y-44100D03*
X48700Y-45100D03*
X48700Y-46100D03*
X48700Y-47100D03*
X48700Y-48100D03*
X48700Y-49100D03*
X48700Y-50100D03*
G54D25*
X65700Y-50100D03*
G54D26*
X65700Y-49100D03*
X65700Y-48100D03*
X65700Y-47100D03*
X65700Y-46100D03*
X65700Y-45100D03*
G54D17*
X60650Y-33750D03*
X59650Y-33750D03*
G54D25*
X55500Y-31750D03*
G54D26*
X56500Y-31750D03*
X57500Y-31750D03*
X58500Y-31750D03*
X59500Y-31750D03*
X60500Y-31750D03*
G54D27*
X64950Y-34300D03*
G54D22*
X65950Y-34300D03*
X64950Y-35300D03*
X65950Y-35300D03*
X64950Y-36300D03*
X65950Y-36300D03*
G54D24*
X54750Y-43250D03*
X54750Y-44250D03*
X54750Y-46250D03*
X54750Y-45250D03*
G54D28*
X51000Y-39550D03*
G54D29*
X51000Y-36950D03*
X50100Y-36950D03*
X51900Y-36950D03*
G54D17*
X55600Y-47950D03*
X54600Y-47950D03*
M02*
