%FSLAX34Y34*%
G04 Gerber Fmt 3.4, Leading zero omitted, Abs format*
G04 (created by PCBNEW (2013-12-28 BZR 4579)-product) date tor 16 jan 2014 22:13:37 CET*
%MOIN*%
G01*
G70*
G90*
G04 APERTURE LIST*
%ADD10C,0.006000*%
%ADD11C,0.007000*%
%ADD12C,0.015000*%
G04 APERTURE END LIST*
G54D10*
G54D11*
X57490Y-37231D02*
X57597Y-37079D01*
X57673Y-37231D02*
X57673Y-36911D01*
X57551Y-36911D01*
X57521Y-36927D01*
X57506Y-36942D01*
X57490Y-36972D01*
X57490Y-37018D01*
X57506Y-37048D01*
X57521Y-37064D01*
X57551Y-37079D01*
X57673Y-37079D01*
X57231Y-37216D02*
X57262Y-37231D01*
X57323Y-37231D01*
X57353Y-37216D01*
X57369Y-37186D01*
X57369Y-37064D01*
X57353Y-37033D01*
X57323Y-37018D01*
X57262Y-37018D01*
X57231Y-37033D01*
X57216Y-37064D01*
X57216Y-37094D01*
X57369Y-37125D01*
X56942Y-37216D02*
X56972Y-37231D01*
X57033Y-37231D01*
X57064Y-37216D01*
X57079Y-37201D01*
X57094Y-37170D01*
X57094Y-37079D01*
X57079Y-37048D01*
X57064Y-37033D01*
X57033Y-37018D01*
X56972Y-37018D01*
X56942Y-37033D01*
X56759Y-37231D02*
X56789Y-37216D01*
X56805Y-37201D01*
X56820Y-37170D01*
X56820Y-37079D01*
X56805Y-37048D01*
X56789Y-37033D01*
X56759Y-37018D01*
X56713Y-37018D01*
X56683Y-37033D01*
X56668Y-37048D01*
X56652Y-37079D01*
X56652Y-37170D01*
X56668Y-37201D01*
X56683Y-37216D01*
X56713Y-37231D01*
X56759Y-37231D01*
X56515Y-37231D02*
X56515Y-37018D01*
X56515Y-37048D02*
X56500Y-37033D01*
X56470Y-37018D01*
X56424Y-37018D01*
X56393Y-37033D01*
X56378Y-37064D01*
X56378Y-37231D01*
X56378Y-37064D02*
X56363Y-37033D01*
X56332Y-37018D01*
X56287Y-37018D01*
X56256Y-37033D01*
X56241Y-37064D01*
X56241Y-37231D01*
X56089Y-37231D02*
X56089Y-37018D01*
X56089Y-37048D02*
X56073Y-37033D01*
X56043Y-37018D01*
X55997Y-37018D01*
X55967Y-37033D01*
X55951Y-37064D01*
X55951Y-37231D01*
X55951Y-37064D02*
X55936Y-37033D01*
X55906Y-37018D01*
X55860Y-37018D01*
X55830Y-37033D01*
X55814Y-37064D01*
X55814Y-37231D01*
X55540Y-37216D02*
X55570Y-37231D01*
X55631Y-37231D01*
X55662Y-37216D01*
X55677Y-37186D01*
X55677Y-37064D01*
X55662Y-37033D01*
X55631Y-37018D01*
X55570Y-37018D01*
X55540Y-37033D01*
X55525Y-37064D01*
X55525Y-37094D01*
X55677Y-37125D01*
X55388Y-37018D02*
X55388Y-37231D01*
X55388Y-37048D02*
X55372Y-37033D01*
X55342Y-37018D01*
X55296Y-37018D01*
X55266Y-37033D01*
X55250Y-37064D01*
X55250Y-37231D01*
X54961Y-37231D02*
X54961Y-36911D01*
X54961Y-37216D02*
X54991Y-37231D01*
X55052Y-37231D01*
X55083Y-37216D01*
X55098Y-37201D01*
X55113Y-37170D01*
X55113Y-37079D01*
X55098Y-37048D01*
X55083Y-37033D01*
X55052Y-37018D01*
X54991Y-37018D01*
X54961Y-37033D01*
X54687Y-37216D02*
X54717Y-37231D01*
X54778Y-37231D01*
X54809Y-37216D01*
X54824Y-37186D01*
X54824Y-37064D01*
X54809Y-37033D01*
X54778Y-37018D01*
X54717Y-37018D01*
X54687Y-37033D01*
X54671Y-37064D01*
X54671Y-37094D01*
X54824Y-37125D01*
X54397Y-37231D02*
X54397Y-36911D01*
X54397Y-37216D02*
X54428Y-37231D01*
X54489Y-37231D01*
X54519Y-37216D01*
X54534Y-37201D01*
X54550Y-37170D01*
X54550Y-37079D01*
X54534Y-37048D01*
X54519Y-37033D01*
X54489Y-37018D01*
X54428Y-37018D01*
X54397Y-37033D01*
X54245Y-37201D02*
X54230Y-37216D01*
X54245Y-37231D01*
X54260Y-37216D01*
X54245Y-37201D01*
X54245Y-37231D01*
X54245Y-37033D02*
X54230Y-37048D01*
X54245Y-37064D01*
X54260Y-37048D01*
X54245Y-37033D01*
X54245Y-37064D01*
X57490Y-37719D02*
X57506Y-37734D01*
X57551Y-37749D01*
X57582Y-37749D01*
X57628Y-37734D01*
X57658Y-37704D01*
X57673Y-37673D01*
X57689Y-37612D01*
X57689Y-37566D01*
X57673Y-37505D01*
X57658Y-37475D01*
X57628Y-37445D01*
X57582Y-37429D01*
X57551Y-37429D01*
X57506Y-37445D01*
X57490Y-37460D01*
X57186Y-37749D02*
X57369Y-37749D01*
X57277Y-37749D02*
X57277Y-37429D01*
X57308Y-37475D01*
X57338Y-37505D01*
X57369Y-37521D01*
X57049Y-37719D02*
X57033Y-37734D01*
X57049Y-37749D01*
X57064Y-37734D01*
X57049Y-37719D01*
X57049Y-37749D01*
X57049Y-37551D02*
X57033Y-37566D01*
X57049Y-37582D01*
X57064Y-37566D01*
X57049Y-37551D01*
X57049Y-37582D01*
X56485Y-37749D02*
X56668Y-37749D01*
X56576Y-37749D02*
X56576Y-37429D01*
X56607Y-37475D01*
X56637Y-37505D01*
X56668Y-37521D01*
X56287Y-37429D02*
X56256Y-37429D01*
X56226Y-37445D01*
X56210Y-37460D01*
X56195Y-37490D01*
X56180Y-37551D01*
X56180Y-37627D01*
X56195Y-37688D01*
X56210Y-37719D01*
X56226Y-37734D01*
X56256Y-37749D01*
X56287Y-37749D01*
X56317Y-37734D01*
X56332Y-37719D01*
X56348Y-37688D01*
X56363Y-37627D01*
X56363Y-37551D01*
X56348Y-37490D01*
X56332Y-37460D01*
X56317Y-37445D01*
X56287Y-37429D01*
X55906Y-37536D02*
X55906Y-37749D01*
X56043Y-37536D02*
X56043Y-37704D01*
X56028Y-37734D01*
X55997Y-37749D01*
X55951Y-37749D01*
X55921Y-37734D01*
X55906Y-37719D01*
X55647Y-37582D02*
X55753Y-37582D01*
X55753Y-37749D02*
X55753Y-37429D01*
X55601Y-37429D01*
X57490Y-38237D02*
X57506Y-38252D01*
X57551Y-38267D01*
X57582Y-38267D01*
X57628Y-38252D01*
X57658Y-38222D01*
X57673Y-38191D01*
X57689Y-38130D01*
X57689Y-38084D01*
X57673Y-38023D01*
X57658Y-37993D01*
X57628Y-37963D01*
X57582Y-37947D01*
X57551Y-37947D01*
X57506Y-37963D01*
X57490Y-37978D01*
X57369Y-37978D02*
X57353Y-37963D01*
X57323Y-37947D01*
X57247Y-37947D01*
X57216Y-37963D01*
X57201Y-37978D01*
X57186Y-38008D01*
X57186Y-38039D01*
X57201Y-38084D01*
X57384Y-38267D01*
X57186Y-38267D01*
X57049Y-38237D02*
X57033Y-38252D01*
X57049Y-38267D01*
X57064Y-38252D01*
X57049Y-38237D01*
X57049Y-38267D01*
X57049Y-38069D02*
X57033Y-38084D01*
X57049Y-38100D01*
X57064Y-38084D01*
X57049Y-38069D01*
X57049Y-38100D01*
X56515Y-38054D02*
X56515Y-38267D01*
X56591Y-37932D02*
X56668Y-38161D01*
X56470Y-38161D01*
X56378Y-37947D02*
X56165Y-37947D01*
X56302Y-38267D01*
X55906Y-38054D02*
X55906Y-38267D01*
X56043Y-38054D02*
X56043Y-38222D01*
X56028Y-38252D01*
X55997Y-38267D01*
X55951Y-38267D01*
X55921Y-38252D01*
X55906Y-38237D01*
X55647Y-38100D02*
X55753Y-38100D01*
X55753Y-38267D02*
X55753Y-37947D01*
X55601Y-37947D01*
X57490Y-38755D02*
X57506Y-38770D01*
X57551Y-38785D01*
X57582Y-38785D01*
X57628Y-38770D01*
X57658Y-38740D01*
X57673Y-38709D01*
X57689Y-38648D01*
X57689Y-38602D01*
X57673Y-38541D01*
X57658Y-38511D01*
X57628Y-38481D01*
X57582Y-38465D01*
X57551Y-38465D01*
X57506Y-38481D01*
X57490Y-38496D01*
X57384Y-38465D02*
X57186Y-38465D01*
X57292Y-38587D01*
X57247Y-38587D01*
X57216Y-38602D01*
X57201Y-38618D01*
X57186Y-38648D01*
X57186Y-38724D01*
X57201Y-38755D01*
X57216Y-38770D01*
X57247Y-38785D01*
X57338Y-38785D01*
X57369Y-38770D01*
X57384Y-38755D01*
X57033Y-38770D02*
X57033Y-38785D01*
X57049Y-38816D01*
X57064Y-38831D01*
X56713Y-38755D02*
X56729Y-38770D01*
X56774Y-38785D01*
X56805Y-38785D01*
X56850Y-38770D01*
X56881Y-38740D01*
X56896Y-38709D01*
X56911Y-38648D01*
X56911Y-38602D01*
X56896Y-38541D01*
X56881Y-38511D01*
X56850Y-38481D01*
X56805Y-38465D01*
X56774Y-38465D01*
X56729Y-38481D01*
X56713Y-38496D01*
X56439Y-38572D02*
X56439Y-38785D01*
X56515Y-38450D02*
X56591Y-38679D01*
X56393Y-38679D01*
X56256Y-38770D02*
X56256Y-38785D01*
X56271Y-38816D01*
X56287Y-38831D01*
X55936Y-38755D02*
X55951Y-38770D01*
X55997Y-38785D01*
X56028Y-38785D01*
X56073Y-38770D01*
X56104Y-38740D01*
X56119Y-38709D01*
X56134Y-38648D01*
X56134Y-38602D01*
X56119Y-38541D01*
X56104Y-38511D01*
X56073Y-38481D01*
X56028Y-38465D01*
X55997Y-38465D01*
X55951Y-38481D01*
X55936Y-38496D01*
X55647Y-38465D02*
X55799Y-38465D01*
X55814Y-38618D01*
X55799Y-38602D01*
X55769Y-38587D01*
X55692Y-38587D01*
X55662Y-38602D01*
X55647Y-38618D01*
X55631Y-38648D01*
X55631Y-38724D01*
X55647Y-38755D01*
X55662Y-38770D01*
X55692Y-38785D01*
X55769Y-38785D01*
X55799Y-38770D01*
X55814Y-38755D01*
X55479Y-38770D02*
X55479Y-38785D01*
X55494Y-38816D01*
X55510Y-38831D01*
X55159Y-38755D02*
X55174Y-38770D01*
X55220Y-38785D01*
X55250Y-38785D01*
X55296Y-38770D01*
X55327Y-38740D01*
X55342Y-38709D01*
X55357Y-38648D01*
X55357Y-38602D01*
X55342Y-38541D01*
X55327Y-38511D01*
X55296Y-38481D01*
X55250Y-38465D01*
X55220Y-38465D01*
X55174Y-38481D01*
X55159Y-38496D01*
X54976Y-38602D02*
X55007Y-38587D01*
X55022Y-38572D01*
X55037Y-38541D01*
X55037Y-38526D01*
X55022Y-38496D01*
X55007Y-38481D01*
X54976Y-38465D01*
X54915Y-38465D01*
X54885Y-38481D01*
X54870Y-38496D01*
X54854Y-38526D01*
X54854Y-38541D01*
X54870Y-38572D01*
X54885Y-38587D01*
X54915Y-38602D01*
X54976Y-38602D01*
X55007Y-38618D01*
X55022Y-38633D01*
X55037Y-38663D01*
X55037Y-38724D01*
X55022Y-38755D01*
X55007Y-38770D01*
X54976Y-38785D01*
X54915Y-38785D01*
X54885Y-38770D01*
X54870Y-38755D01*
X54854Y-38724D01*
X54854Y-38663D01*
X54870Y-38633D01*
X54885Y-38618D01*
X54915Y-38602D01*
X54717Y-38755D02*
X54702Y-38770D01*
X54717Y-38785D01*
X54732Y-38770D01*
X54717Y-38755D01*
X54717Y-38785D01*
X54717Y-38587D02*
X54702Y-38602D01*
X54717Y-38618D01*
X54732Y-38602D01*
X54717Y-38587D01*
X54717Y-38618D01*
X54153Y-38785D02*
X54336Y-38785D01*
X54245Y-38785D02*
X54245Y-38465D01*
X54275Y-38511D01*
X54306Y-38541D01*
X54336Y-38557D01*
X53955Y-38465D02*
X53925Y-38465D01*
X53894Y-38481D01*
X53879Y-38496D01*
X53864Y-38526D01*
X53849Y-38587D01*
X53849Y-38663D01*
X53864Y-38724D01*
X53879Y-38755D01*
X53894Y-38770D01*
X53925Y-38785D01*
X53955Y-38785D01*
X53986Y-38770D01*
X54001Y-38755D01*
X54016Y-38724D01*
X54031Y-38663D01*
X54031Y-38587D01*
X54016Y-38526D01*
X54001Y-38496D01*
X53986Y-38481D01*
X53955Y-38465D01*
X53650Y-38465D02*
X53620Y-38465D01*
X53590Y-38481D01*
X53574Y-38496D01*
X53559Y-38526D01*
X53544Y-38587D01*
X53544Y-38663D01*
X53559Y-38724D01*
X53574Y-38755D01*
X53590Y-38770D01*
X53620Y-38785D01*
X53650Y-38785D01*
X53681Y-38770D01*
X53696Y-38755D01*
X53711Y-38724D01*
X53727Y-38663D01*
X53727Y-38587D01*
X53711Y-38526D01*
X53696Y-38496D01*
X53681Y-38481D01*
X53650Y-38465D01*
X53407Y-38572D02*
X53407Y-38785D01*
X53407Y-38602D02*
X53391Y-38587D01*
X53361Y-38572D01*
X53315Y-38572D01*
X53285Y-38587D01*
X53270Y-38618D01*
X53270Y-38785D01*
X53010Y-38618D02*
X53117Y-38618D01*
X53117Y-38785D02*
X53117Y-38465D01*
X52965Y-38465D01*
X57612Y-39501D02*
X57551Y-39501D01*
X57521Y-39517D01*
X57490Y-39547D01*
X57475Y-39608D01*
X57475Y-39715D01*
X57490Y-39776D01*
X57521Y-39806D01*
X57551Y-39821D01*
X57612Y-39821D01*
X57643Y-39806D01*
X57673Y-39776D01*
X57689Y-39715D01*
X57689Y-39608D01*
X57673Y-39547D01*
X57643Y-39517D01*
X57612Y-39501D01*
X57338Y-39608D02*
X57338Y-39928D01*
X57338Y-39623D02*
X57308Y-39608D01*
X57247Y-39608D01*
X57216Y-39623D01*
X57201Y-39638D01*
X57186Y-39669D01*
X57186Y-39760D01*
X57201Y-39791D01*
X57216Y-39806D01*
X57247Y-39821D01*
X57308Y-39821D01*
X57338Y-39806D01*
X57094Y-39608D02*
X56972Y-39608D01*
X57049Y-39501D02*
X57049Y-39776D01*
X57033Y-39806D01*
X57003Y-39821D01*
X56972Y-39821D01*
X56866Y-39821D02*
X56866Y-39608D01*
X56866Y-39501D02*
X56881Y-39517D01*
X56866Y-39532D01*
X56850Y-39517D01*
X56866Y-39501D01*
X56866Y-39532D01*
X56668Y-39821D02*
X56698Y-39806D01*
X56713Y-39791D01*
X56729Y-39760D01*
X56729Y-39669D01*
X56713Y-39638D01*
X56698Y-39623D01*
X56668Y-39608D01*
X56622Y-39608D01*
X56591Y-39623D01*
X56576Y-39638D01*
X56561Y-39669D01*
X56561Y-39760D01*
X56576Y-39791D01*
X56591Y-39806D01*
X56622Y-39821D01*
X56668Y-39821D01*
X56424Y-39608D02*
X56424Y-39821D01*
X56424Y-39638D02*
X56409Y-39623D01*
X56378Y-39608D01*
X56332Y-39608D01*
X56302Y-39623D01*
X56287Y-39654D01*
X56287Y-39821D01*
X55997Y-39821D02*
X55997Y-39654D01*
X56012Y-39623D01*
X56043Y-39608D01*
X56104Y-39608D01*
X56134Y-39623D01*
X55997Y-39806D02*
X56028Y-39821D01*
X56104Y-39821D01*
X56134Y-39806D01*
X56150Y-39776D01*
X56150Y-39745D01*
X56134Y-39715D01*
X56104Y-39699D01*
X56028Y-39699D01*
X55997Y-39684D01*
X55799Y-39821D02*
X55830Y-39806D01*
X55845Y-39776D01*
X55845Y-39501D01*
X55677Y-39791D02*
X55662Y-39806D01*
X55677Y-39821D01*
X55692Y-39806D01*
X55677Y-39791D01*
X55677Y-39821D01*
X55677Y-39623D02*
X55662Y-39638D01*
X55677Y-39654D01*
X55692Y-39638D01*
X55677Y-39623D01*
X55677Y-39654D01*
X57704Y-40019D02*
X57490Y-40339D01*
X57490Y-40019D02*
X57704Y-40339D01*
X57201Y-40339D02*
X57384Y-40339D01*
X57292Y-40339D02*
X57292Y-40019D01*
X57323Y-40065D01*
X57353Y-40095D01*
X57384Y-40111D01*
X57064Y-40309D02*
X57049Y-40324D01*
X57064Y-40339D01*
X57079Y-40324D01*
X57064Y-40309D01*
X57064Y-40339D01*
X57064Y-40141D02*
X57049Y-40156D01*
X57064Y-40172D01*
X57079Y-40156D01*
X57064Y-40141D01*
X57064Y-40172D01*
X56500Y-40339D02*
X56683Y-40339D01*
X56591Y-40339D02*
X56591Y-40019D01*
X56622Y-40065D01*
X56652Y-40095D01*
X56683Y-40111D01*
X56226Y-40019D02*
X56287Y-40019D01*
X56317Y-40035D01*
X56332Y-40050D01*
X56363Y-40095D01*
X56378Y-40156D01*
X56378Y-40278D01*
X56363Y-40309D01*
X56348Y-40324D01*
X56317Y-40339D01*
X56256Y-40339D01*
X56226Y-40324D01*
X56210Y-40309D01*
X56195Y-40278D01*
X56195Y-40202D01*
X56210Y-40172D01*
X56226Y-40156D01*
X56256Y-40141D01*
X56317Y-40141D01*
X56348Y-40156D01*
X56363Y-40172D01*
X56378Y-40202D01*
X56058Y-40339D02*
X56058Y-40019D01*
X55951Y-40248D01*
X55845Y-40019D01*
X55845Y-40339D01*
X55692Y-40339D02*
X55692Y-40019D01*
X55692Y-40172D02*
X55510Y-40172D01*
X55510Y-40339D02*
X55510Y-40019D01*
X55388Y-40126D02*
X55220Y-40126D01*
X55388Y-40339D01*
X55220Y-40339D01*
X57490Y-40827D02*
X57506Y-40842D01*
X57551Y-40857D01*
X57582Y-40857D01*
X57628Y-40842D01*
X57658Y-40812D01*
X57673Y-40781D01*
X57689Y-40720D01*
X57689Y-40674D01*
X57673Y-40613D01*
X57658Y-40583D01*
X57628Y-40553D01*
X57582Y-40537D01*
X57551Y-40537D01*
X57506Y-40553D01*
X57490Y-40568D01*
X57216Y-40537D02*
X57277Y-40537D01*
X57308Y-40553D01*
X57323Y-40568D01*
X57353Y-40613D01*
X57369Y-40674D01*
X57369Y-40796D01*
X57353Y-40827D01*
X57338Y-40842D01*
X57308Y-40857D01*
X57247Y-40857D01*
X57216Y-40842D01*
X57201Y-40827D01*
X57186Y-40796D01*
X57186Y-40720D01*
X57201Y-40690D01*
X57216Y-40674D01*
X57247Y-40659D01*
X57308Y-40659D01*
X57338Y-40674D01*
X57353Y-40690D01*
X57369Y-40720D01*
X57033Y-40842D02*
X57033Y-40857D01*
X57049Y-40888D01*
X57064Y-40903D01*
X56713Y-40827D02*
X56729Y-40842D01*
X56774Y-40857D01*
X56805Y-40857D01*
X56850Y-40842D01*
X56881Y-40812D01*
X56896Y-40781D01*
X56911Y-40720D01*
X56911Y-40674D01*
X56896Y-40613D01*
X56881Y-40583D01*
X56850Y-40553D01*
X56805Y-40537D01*
X56774Y-40537D01*
X56729Y-40553D01*
X56713Y-40568D01*
X56607Y-40537D02*
X56393Y-40537D01*
X56530Y-40857D01*
X56271Y-40827D02*
X56256Y-40842D01*
X56271Y-40857D01*
X56287Y-40842D01*
X56271Y-40827D01*
X56271Y-40857D01*
X56271Y-40659D02*
X56256Y-40674D01*
X56271Y-40690D01*
X56287Y-40674D01*
X56271Y-40659D01*
X56271Y-40690D01*
X55890Y-40568D02*
X55875Y-40553D01*
X55845Y-40537D01*
X55769Y-40537D01*
X55738Y-40553D01*
X55723Y-40568D01*
X55708Y-40598D01*
X55708Y-40629D01*
X55723Y-40674D01*
X55906Y-40857D01*
X55708Y-40857D01*
X55586Y-40568D02*
X55570Y-40553D01*
X55540Y-40537D01*
X55464Y-40537D01*
X55433Y-40553D01*
X55418Y-40568D01*
X55403Y-40598D01*
X55403Y-40629D01*
X55418Y-40674D01*
X55601Y-40857D01*
X55403Y-40857D01*
X55266Y-40644D02*
X55266Y-40964D01*
X55266Y-40659D02*
X55235Y-40644D01*
X55174Y-40644D01*
X55144Y-40659D01*
X55129Y-40674D01*
X55113Y-40705D01*
X55113Y-40796D01*
X55129Y-40827D01*
X55144Y-40842D01*
X55174Y-40857D01*
X55235Y-40857D01*
X55266Y-40842D01*
X54870Y-40690D02*
X54976Y-40690D01*
X54976Y-40857D02*
X54976Y-40537D01*
X54824Y-40537D01*
X51008Y-46735D02*
X51008Y-46602D01*
X50799Y-46545D02*
X50799Y-46735D01*
X51199Y-46735D01*
X51199Y-46545D01*
X50799Y-46373D02*
X51065Y-46373D01*
X51199Y-46373D02*
X51180Y-46392D01*
X51160Y-46373D01*
X51180Y-46354D01*
X51199Y-46373D01*
X51160Y-46373D01*
X51065Y-46011D02*
X50741Y-46011D01*
X50703Y-46030D01*
X50684Y-46049D01*
X50665Y-46088D01*
X50665Y-46145D01*
X50684Y-46183D01*
X50818Y-46011D02*
X50799Y-46049D01*
X50799Y-46126D01*
X50818Y-46164D01*
X50837Y-46183D01*
X50875Y-46202D01*
X50989Y-46202D01*
X51027Y-46183D01*
X51046Y-46164D01*
X51065Y-46126D01*
X51065Y-46049D01*
X51046Y-46011D01*
X50799Y-45821D02*
X51199Y-45821D01*
X50799Y-45649D02*
X51008Y-45649D01*
X51046Y-45669D01*
X51065Y-45707D01*
X51065Y-45764D01*
X51046Y-45802D01*
X51027Y-45821D01*
X51065Y-45516D02*
X51065Y-45364D01*
X51199Y-45459D02*
X50856Y-45459D01*
X50818Y-45440D01*
X50799Y-45402D01*
X50799Y-45364D01*
X51065Y-45059D02*
X50799Y-45059D01*
X51065Y-45230D02*
X50856Y-45230D01*
X50818Y-45211D01*
X50799Y-45173D01*
X50799Y-45116D01*
X50818Y-45078D01*
X50837Y-45059D01*
X50799Y-44869D02*
X51065Y-44869D01*
X51199Y-44869D02*
X51180Y-44888D01*
X51160Y-44869D01*
X51180Y-44849D01*
X51199Y-44869D01*
X51160Y-44869D01*
X51065Y-44678D02*
X50799Y-44678D01*
X51027Y-44678D02*
X51046Y-44659D01*
X51065Y-44621D01*
X51065Y-44564D01*
X51046Y-44526D01*
X51008Y-44507D01*
X50799Y-44507D01*
X50799Y-44259D02*
X50818Y-44297D01*
X50837Y-44316D01*
X50875Y-44335D01*
X50989Y-44335D01*
X51027Y-44316D01*
X51046Y-44297D01*
X51065Y-44259D01*
X51065Y-44202D01*
X51046Y-44164D01*
X51027Y-44145D01*
X50989Y-44126D01*
X50875Y-44126D01*
X50837Y-44145D01*
X50818Y-44164D01*
X50799Y-44202D01*
X50799Y-44259D01*
X50799Y-43649D02*
X51065Y-43649D01*
X50989Y-43649D02*
X51027Y-43630D01*
X51046Y-43611D01*
X51065Y-43573D01*
X51065Y-43535D01*
X50818Y-43250D02*
X50799Y-43288D01*
X50799Y-43364D01*
X50818Y-43402D01*
X50856Y-43421D01*
X51008Y-43421D01*
X51046Y-43402D01*
X51065Y-43364D01*
X51065Y-43288D01*
X51046Y-43250D01*
X51008Y-43230D01*
X50970Y-43230D01*
X50932Y-43421D01*
X51065Y-43097D02*
X50799Y-43002D01*
X51065Y-42907D01*
X50799Y-42545D02*
X50799Y-42773D01*
X50799Y-42659D02*
X51199Y-42659D01*
X51141Y-42697D01*
X51103Y-42735D01*
X51084Y-42773D01*
X50473Y-48754D02*
X50492Y-48792D01*
X50492Y-48869D01*
X50473Y-48907D01*
X50435Y-48945D01*
X50397Y-48964D01*
X50321Y-48964D01*
X50283Y-48945D01*
X50245Y-48907D01*
X50226Y-48869D01*
X50226Y-48792D01*
X50245Y-48754D01*
X50626Y-48830D02*
X50607Y-48926D01*
X50550Y-49021D01*
X50454Y-49078D01*
X50359Y-49097D01*
X50264Y-49078D01*
X50169Y-49021D01*
X50111Y-48926D01*
X50092Y-48830D01*
X50111Y-48735D01*
X50169Y-48640D01*
X50264Y-48583D01*
X50359Y-48564D01*
X50454Y-48583D01*
X50550Y-48640D01*
X50607Y-48735D01*
X50626Y-48830D01*
X50530Y-48107D02*
X50550Y-48088D01*
X50569Y-48049D01*
X50569Y-47954D01*
X50550Y-47916D01*
X50530Y-47897D01*
X50492Y-47878D01*
X50454Y-47878D01*
X50397Y-47897D01*
X50169Y-48126D01*
X50169Y-47878D01*
X50569Y-47630D02*
X50569Y-47592D01*
X50550Y-47554D01*
X50530Y-47535D01*
X50492Y-47516D01*
X50416Y-47497D01*
X50321Y-47497D01*
X50245Y-47516D01*
X50207Y-47535D01*
X50188Y-47554D01*
X50169Y-47592D01*
X50169Y-47630D01*
X50188Y-47669D01*
X50207Y-47688D01*
X50245Y-47707D01*
X50321Y-47726D01*
X50416Y-47726D01*
X50492Y-47707D01*
X50530Y-47688D01*
X50550Y-47669D01*
X50569Y-47630D01*
X50169Y-47116D02*
X50169Y-47345D01*
X50169Y-47230D02*
X50569Y-47230D01*
X50511Y-47269D01*
X50473Y-47307D01*
X50454Y-47345D01*
X50569Y-46983D02*
X50569Y-46735D01*
X50416Y-46869D01*
X50416Y-46811D01*
X50397Y-46773D01*
X50378Y-46754D01*
X50340Y-46735D01*
X50245Y-46735D01*
X50207Y-46754D01*
X50188Y-46773D01*
X50169Y-46811D01*
X50169Y-46926D01*
X50188Y-46964D01*
X50207Y-46983D01*
X50169Y-46259D02*
X50569Y-46259D01*
X50169Y-46030D01*
X50569Y-46030D01*
X50169Y-45840D02*
X50435Y-45840D01*
X50569Y-45840D02*
X50550Y-45859D01*
X50530Y-45840D01*
X50550Y-45821D01*
X50569Y-45840D01*
X50530Y-45840D01*
X50188Y-45497D02*
X50169Y-45535D01*
X50169Y-45611D01*
X50188Y-45649D01*
X50226Y-45669D01*
X50378Y-45669D01*
X50416Y-45649D01*
X50435Y-45611D01*
X50435Y-45535D01*
X50416Y-45497D01*
X50378Y-45478D01*
X50340Y-45478D01*
X50302Y-45669D01*
X50169Y-45249D02*
X50188Y-45288D01*
X50226Y-45307D01*
X50569Y-45307D01*
X50188Y-45116D02*
X50169Y-45078D01*
X50169Y-45002D01*
X50188Y-44964D01*
X50226Y-44945D01*
X50245Y-44945D01*
X50283Y-44964D01*
X50302Y-45002D01*
X50302Y-45059D01*
X50321Y-45097D01*
X50359Y-45116D01*
X50378Y-45116D01*
X50416Y-45097D01*
X50435Y-45059D01*
X50435Y-45002D01*
X50416Y-44964D01*
X50169Y-44469D02*
X50569Y-44469D01*
X50169Y-44240D02*
X50397Y-44411D01*
X50569Y-44240D02*
X50340Y-44469D01*
X50435Y-44069D02*
X50092Y-44069D01*
X50054Y-44088D01*
X50035Y-44126D01*
X50035Y-44145D01*
X50569Y-44069D02*
X50550Y-44088D01*
X50530Y-44069D01*
X50550Y-44049D01*
X50569Y-44069D01*
X50530Y-44069D01*
X50435Y-43669D02*
X50169Y-43916D01*
X50169Y-43821D02*
X50188Y-43859D01*
X50207Y-43878D01*
X50245Y-43897D01*
X50359Y-43897D01*
X50397Y-43878D01*
X50416Y-43859D01*
X50435Y-43821D01*
X50435Y-43764D01*
X50416Y-43726D01*
X50397Y-43707D01*
X50359Y-43688D01*
X50245Y-43688D01*
X50207Y-43707D01*
X50188Y-43726D01*
X50169Y-43764D01*
X50169Y-43821D01*
X50169Y-43459D02*
X50188Y-43497D01*
X50226Y-43516D01*
X50569Y-43516D01*
X50169Y-43249D02*
X50188Y-43288D01*
X50226Y-43307D01*
X50569Y-43307D01*
X50188Y-42945D02*
X50169Y-42983D01*
X50169Y-43059D01*
X50188Y-43097D01*
X50226Y-43116D01*
X50378Y-43116D01*
X50416Y-43097D01*
X50435Y-43059D01*
X50435Y-42983D01*
X50416Y-42945D01*
X50378Y-42926D01*
X50340Y-42926D01*
X50302Y-43116D01*
X50169Y-42754D02*
X50435Y-42754D01*
X50359Y-42754D02*
X50397Y-42735D01*
X50416Y-42716D01*
X50435Y-42678D01*
X50435Y-42640D01*
X50169Y-42202D02*
X50569Y-42202D01*
X50378Y-42202D02*
X50378Y-41973D01*
X50169Y-41973D02*
X50569Y-41973D01*
X50169Y-41611D02*
X50378Y-41611D01*
X50416Y-41630D01*
X50435Y-41669D01*
X50435Y-41745D01*
X50416Y-41783D01*
X50188Y-41611D02*
X50169Y-41650D01*
X50169Y-41745D01*
X50188Y-41783D01*
X50226Y-41802D01*
X50264Y-41802D01*
X50302Y-41783D01*
X50321Y-41745D01*
X50321Y-41650D01*
X50340Y-41611D01*
X50435Y-41421D02*
X50169Y-41421D01*
X50397Y-41421D02*
X50416Y-41402D01*
X50435Y-41364D01*
X50435Y-41307D01*
X50416Y-41269D01*
X50378Y-41250D01*
X50169Y-41250D01*
X50188Y-41078D02*
X50169Y-41040D01*
X50169Y-40964D01*
X50188Y-40926D01*
X50226Y-40907D01*
X50245Y-40907D01*
X50283Y-40926D01*
X50302Y-40964D01*
X50302Y-41021D01*
X50321Y-41059D01*
X50359Y-41078D01*
X50378Y-41078D01*
X50416Y-41059D01*
X50435Y-41021D01*
X50435Y-40964D01*
X50416Y-40926D01*
X50188Y-40583D02*
X50169Y-40621D01*
X50169Y-40697D01*
X50188Y-40735D01*
X50226Y-40754D01*
X50378Y-40754D01*
X50416Y-40735D01*
X50435Y-40697D01*
X50435Y-40621D01*
X50416Y-40583D01*
X50378Y-40564D01*
X50340Y-40564D01*
X50302Y-40754D01*
X50435Y-40392D02*
X50169Y-40392D01*
X50397Y-40392D02*
X50416Y-40373D01*
X50435Y-40335D01*
X50435Y-40278D01*
X50416Y-40240D01*
X50378Y-40221D01*
X50169Y-40221D01*
X49539Y-47964D02*
X49558Y-48002D01*
X49596Y-48021D01*
X49939Y-48021D01*
X49539Y-47640D02*
X49748Y-47640D01*
X49786Y-47659D01*
X49805Y-47697D01*
X49805Y-47773D01*
X49786Y-47811D01*
X49558Y-47640D02*
X49539Y-47678D01*
X49539Y-47773D01*
X49558Y-47811D01*
X49596Y-47830D01*
X49634Y-47830D01*
X49672Y-47811D01*
X49691Y-47773D01*
X49691Y-47678D01*
X49710Y-47640D01*
X49539Y-47450D02*
X49939Y-47450D01*
X49786Y-47450D02*
X49805Y-47411D01*
X49805Y-47335D01*
X49786Y-47297D01*
X49767Y-47278D01*
X49729Y-47259D01*
X49615Y-47259D01*
X49577Y-47278D01*
X49558Y-47297D01*
X49539Y-47335D01*
X49539Y-47411D01*
X49558Y-47450D01*
X49577Y-47088D02*
X49558Y-47069D01*
X49539Y-47088D01*
X49558Y-47107D01*
X49577Y-47088D01*
X49539Y-47088D01*
X49539Y-46897D02*
X49939Y-46897D01*
X49691Y-46859D02*
X49539Y-46745D01*
X49805Y-46745D02*
X49653Y-46897D01*
X49805Y-46573D02*
X49462Y-46573D01*
X49424Y-46592D01*
X49405Y-46630D01*
X49405Y-46650D01*
X49939Y-46573D02*
X49920Y-46592D01*
X49900Y-46573D01*
X49920Y-46554D01*
X49939Y-46573D01*
X49900Y-46573D01*
X49539Y-46326D02*
X49558Y-46364D01*
X49596Y-46383D01*
X49939Y-46383D01*
X49539Y-46173D02*
X49805Y-46173D01*
X49729Y-46173D02*
X49767Y-46154D01*
X49786Y-46135D01*
X49805Y-46097D01*
X49805Y-46059D01*
X49577Y-45926D02*
X49558Y-45907D01*
X49539Y-45926D01*
X49558Y-45945D01*
X49577Y-45926D01*
X49539Y-45926D01*
X49539Y-45564D02*
X49939Y-45564D01*
X49558Y-45564D02*
X49539Y-45602D01*
X49539Y-45678D01*
X49558Y-45716D01*
X49577Y-45735D01*
X49615Y-45754D01*
X49729Y-45754D01*
X49767Y-45735D01*
X49786Y-45716D01*
X49805Y-45678D01*
X49805Y-45602D01*
X49786Y-45564D01*
X49539Y-45373D02*
X49939Y-45373D01*
X49691Y-45335D02*
X49539Y-45221D01*
X49805Y-45221D02*
X49653Y-45373D01*
X49958Y-44764D02*
X49443Y-45107D01*
X49805Y-44630D02*
X49405Y-44630D01*
X49786Y-44630D02*
X49805Y-44592D01*
X49805Y-44516D01*
X49786Y-44478D01*
X49767Y-44459D01*
X49729Y-44440D01*
X49615Y-44440D01*
X49577Y-44459D01*
X49558Y-44478D01*
X49539Y-44516D01*
X49539Y-44592D01*
X49558Y-44630D01*
X49958Y-43983D02*
X49443Y-44326D01*
X49558Y-43697D02*
X49539Y-43735D01*
X49539Y-43811D01*
X49558Y-43850D01*
X49596Y-43869D01*
X49748Y-43869D01*
X49786Y-43850D01*
X49805Y-43811D01*
X49805Y-43735D01*
X49786Y-43697D01*
X49748Y-43678D01*
X49710Y-43678D01*
X49672Y-43869D01*
X49539Y-43507D02*
X49805Y-43507D01*
X49939Y-43507D02*
X49920Y-43526D01*
X49900Y-43507D01*
X49920Y-43488D01*
X49939Y-43507D01*
X49900Y-43507D01*
X49805Y-43145D02*
X49481Y-43145D01*
X49443Y-43164D01*
X49424Y-43183D01*
X49405Y-43221D01*
X49405Y-43278D01*
X49424Y-43316D01*
X49558Y-43145D02*
X49539Y-43183D01*
X49539Y-43259D01*
X49558Y-43297D01*
X49577Y-43316D01*
X49615Y-43335D01*
X49729Y-43335D01*
X49767Y-43316D01*
X49786Y-43297D01*
X49805Y-43259D01*
X49805Y-43183D01*
X49786Y-43145D01*
X49539Y-42954D02*
X49939Y-42954D01*
X49539Y-42783D02*
X49748Y-42783D01*
X49786Y-42802D01*
X49805Y-42840D01*
X49805Y-42897D01*
X49786Y-42935D01*
X49767Y-42954D01*
X49805Y-42650D02*
X49805Y-42497D01*
X49939Y-42592D02*
X49596Y-42592D01*
X49558Y-42573D01*
X49539Y-42535D01*
X49539Y-42497D01*
X49805Y-42192D02*
X49539Y-42192D01*
X49805Y-42364D02*
X49596Y-42364D01*
X49558Y-42345D01*
X49539Y-42307D01*
X49539Y-42250D01*
X49558Y-42211D01*
X49577Y-42192D01*
X49539Y-42002D02*
X49805Y-42002D01*
X49939Y-42002D02*
X49920Y-42021D01*
X49900Y-42002D01*
X49920Y-41983D01*
X49939Y-42002D01*
X49900Y-42002D01*
X49805Y-41811D02*
X49539Y-41811D01*
X49767Y-41811D02*
X49786Y-41792D01*
X49805Y-41754D01*
X49805Y-41697D01*
X49786Y-41659D01*
X49748Y-41640D01*
X49539Y-41640D01*
X49539Y-41392D02*
X49558Y-41430D01*
X49577Y-41450D01*
X49615Y-41469D01*
X49729Y-41469D01*
X49767Y-41450D01*
X49786Y-41430D01*
X49805Y-41392D01*
X49805Y-41335D01*
X49786Y-41297D01*
X49767Y-41278D01*
X49729Y-41259D01*
X49615Y-41259D01*
X49577Y-41278D01*
X49558Y-41297D01*
X49539Y-41335D01*
X49539Y-41392D01*
G54D12*
X52261Y-44063D02*
X51682Y-43921D01*
X51682Y-43921D02*
X52100Y-43811D01*
X52100Y-43811D02*
X51678Y-43689D01*
X51678Y-43689D02*
X52249Y-43555D01*
X51989Y-44622D02*
X51993Y-44311D01*
X51993Y-44311D02*
X51989Y-44307D01*
X51989Y-44307D02*
X51993Y-44307D01*
X52273Y-44291D02*
X51666Y-44291D01*
X52277Y-44641D02*
X51659Y-44641D01*
X51659Y-44641D02*
X51663Y-44637D01*
X52237Y-44858D02*
X52269Y-44996D01*
X52269Y-44996D02*
X52273Y-45122D01*
X52273Y-45122D02*
X52194Y-45216D01*
X52194Y-45216D02*
X52088Y-45228D01*
X52088Y-45228D02*
X51993Y-45133D01*
X51993Y-45133D02*
X51942Y-44980D01*
X51942Y-44980D02*
X51879Y-44909D01*
X51879Y-44909D02*
X51761Y-44893D01*
X51761Y-44893D02*
X51674Y-44984D01*
X51674Y-44984D02*
X51663Y-45110D01*
X51663Y-45110D02*
X51706Y-45248D01*
X52277Y-45657D02*
X52269Y-45755D01*
X52269Y-45755D02*
X52174Y-45850D01*
X52174Y-45850D02*
X51981Y-45885D01*
X51981Y-45885D02*
X51844Y-45874D01*
X51844Y-45874D02*
X51718Y-45795D01*
X51718Y-45795D02*
X51670Y-45696D01*
X51670Y-45696D02*
X51698Y-45574D01*
X51698Y-45574D02*
X51769Y-45488D01*
X51769Y-45488D02*
X51950Y-45460D01*
X51950Y-45460D02*
X52111Y-45480D01*
X52111Y-45480D02*
X52222Y-45523D01*
X52222Y-45523D02*
X52273Y-45665D01*
X52954Y-45421D02*
X52733Y-45523D01*
X52733Y-45523D02*
X52529Y-45311D01*
X52529Y-45311D02*
X52635Y-45106D01*
X52635Y-45106D02*
X52572Y-44996D01*
X52580Y-44429D02*
X52655Y-44299D01*
X52655Y-44299D02*
X52525Y-44126D01*
X52525Y-44126D02*
X52718Y-43940D01*
X52718Y-43940D02*
X52907Y-44051D01*
X52907Y-44051D02*
X53092Y-43976D01*
X53092Y-43976D02*
X53166Y-43736D01*
X53166Y-43736D02*
X53434Y-43736D01*
X53434Y-43736D02*
X53489Y-43956D01*
X53489Y-43956D02*
X53714Y-44035D01*
X53714Y-44035D02*
X53899Y-43929D01*
X53899Y-43929D02*
X54100Y-44114D01*
X54100Y-44114D02*
X53997Y-44318D01*
X53997Y-44318D02*
X54076Y-44503D01*
X54076Y-44503D02*
X54289Y-44570D01*
X54289Y-44570D02*
X54296Y-44842D01*
X54296Y-44842D02*
X54080Y-44925D01*
X54080Y-44925D02*
X54013Y-45090D01*
X54013Y-45090D02*
X54119Y-45307D01*
X54119Y-45307D02*
X53911Y-45511D01*
X53911Y-45511D02*
X53698Y-45413D01*
X53698Y-45413D02*
X53509Y-45480D01*
X53509Y-45480D02*
X53470Y-45696D01*
X53470Y-45696D02*
X53194Y-45700D01*
X53194Y-45700D02*
X53115Y-45480D01*
X53115Y-45480D02*
X52958Y-45425D01*
X52966Y-44582D02*
X53025Y-44464D01*
X53025Y-44464D02*
X53103Y-44385D01*
X53103Y-44385D02*
X53261Y-44326D01*
X53261Y-44326D02*
X53418Y-44326D01*
X53418Y-44326D02*
X53556Y-44385D01*
X53556Y-44385D02*
X53694Y-44563D01*
X53694Y-44563D02*
X53714Y-44740D01*
X53714Y-44740D02*
X53674Y-44897D01*
X53674Y-44897D02*
X53537Y-45055D01*
X53537Y-45055D02*
X53359Y-45114D01*
X53359Y-45114D02*
X53163Y-45094D01*
X53163Y-45094D02*
X53044Y-44996D01*
X53044Y-44996D02*
X52966Y-44858D01*
X52966Y-44858D02*
X52572Y-44996D01*
X52966Y-44582D02*
X52572Y-44425D01*
M02*
